<?xml version="1.0" standalone="no"?>
<!DOCTYPE svg PUBLIC "-//W3C//DTD SVG 20010904//EN"
 "http://www.w3.org/TR/2001/REC-SVG-20010904/DTD/svg10.dtd">
<svg version="1.0" xmlns="http://www.w3.org/2000/svg"
 width="1024.000000pt" height="1536.000000pt" viewBox="0 0 1024.000000 1536.000000"
 preserveAspectRatio="xMidYMid meet">

<g transform="translate(0.000000,1536.000000) scale(0.100000,-0.100000)"
fill="#000000" stroke="none">
<path d="M4985 11645 c-293 -105 -1253 -445 -1835 -650 -680 -239 -1202 -423
-1420 -502 l-135 -48 0 -695 c0 -462 5 -750 13 -860 66 -864 170 -1436 367
-2025 51 -155 187 -498 213 -540 4 -5 7 -115 8 -243 1 -128 4 -235 7 -238 3
-3 19 2 36 10 16 9 32 16 36 16 3 0 5 -28 5 -62 0 -71 3 -65 -244 -443 -191
-293 -265 -435 -300 -584 -35 -146 -37 -276 -3 -216 6 11 28 38 48 60 l38 40
-24 -94 c-38 -151 -49 -256 -42 -414 7 -156 28 -265 77 -398 37 -103 121 -254
141 -254 8 0 21 15 29 32 8 18 18 33 21 33 4 0 12 -14 20 -32 22 -53 126 -185
213 -272 143 -139 327 -258 511 -330 94 -36 250 -79 267 -74 5 2 -2 20 -16 41
-29 43 -25 44 36 17 133 -59 511 -144 798 -180 601 -75 1444 -60 2006 35 519
88 1012 282 1414 557 166 114 297 225 466 393 281 281 467 554 600 884 33 80
94 294 94 327 0 10 -21 0 -62 -30 -330 -239 -834 -480 -1318 -629 -248 -77
-771 -200 -785 -185 -3 2 45 41 105 86 400 299 808 711 1112 1122 488 660 825
1428 993 2265 38 192 91 519 111 695 17 147 20 157 52 203 72 101 92 218 51
307 -11 24 -26 51 -33 60 -10 11 -11 35 -5 100 29 312 42 1497 17 1518 -7 5
-110 44 -228 85 -239 84 -736 258 -905 317 -60 21 -330 116 -600 210 -661 231
-698 244 -1265 440 -272 94 -505 175 -518 180 -31 14 -31 14 -167 -35z m567
-329 c227 -79 530 -186 673 -236 478 -169 798 -281 995 -350 107 -38 260 -92
340 -120 80 -29 195 -69 255 -90 61 -21 103 -39 95 -39 -8 0 -94 26 -190 59
-96 32 -176 57 -179 55 -2 -3 7 -9 20 -14 21 -8 22 -10 6 -16 -12 -5 -23 -1
-33 11 -9 11 -12 13 -8 5 5 -10 1 -11 -17 -6 -13 4 -22 5 -19 2 3 -4 66 -27
140 -52 74 -26 168 -58 208 -72 40 -14 71 -27 69 -29 -6 -6 -581 189 -1282
436 -363 127 -761 267 -885 310 -124 43 -310 108 -415 145 -104 37 -197 67
-205 67 -16 -1 -564 -194 -1180 -415 -452 -162 -1359 -480 -1745 -610 -342
-116 -315 -105 -316 -131 -4 -139 4 -853 11 -1026 36 -796 152 -1526 341
-2139 64 -206 64 -206 80 -153 7 23 14 40 16 38 3 -2 -9 -46 -25 -98 -17 -51
-32 -102 -36 -113 -3 -11 -3 -4 0 16 2 20 0 48 -6 63 -6 17 -6 26 0 26 6 0 10
-8 11 -17 0 -15 2 -15 9 2 13 30 12 38 -6 31 -8 -3 -12 -2 -9 4 3 6 2 10 -4
10 -5 0 -14 -7 -19 -16 -10 -18 -30 33 -102 261 -106 332 -195 772 -255 1260
-58 473 -78 827 -79 1449 l-1 479 95 33 c52 17 235 80 405 139 171 59 387 133
480 165 167 57 552 192 770 270 61 22 295 105 520 186 725 259 1027 363 1052
364 6 0 197 -65 425 -144z m-435 32 c-3 -8 -6 -5 -6 6 -1 11 2 17 5 13 3 -3 4
-12 1 -19z m0 -55 c-3 -10 -5 -4 -5 12 0 17 2 24 5 18 2 -7 2 -21 0 -30z
m-1262 -261 c-3 -3 -11 0 -18 7 -9 10 -8 11 6 5 10 -3 15 -9 12 -12z m-188
-68 c-3 -3 -12 -4 -19 -1 -8 3 -5 6 6 6 11 1 17 -2 13 -5z m-749 -259 c-3 -3
-9 2 -12 12 -6 14 -5 15 5 6 7 -7 10 -15 7 -18z m4728 -156 c3 -5 -2 -9 -10
-9 -8 0 -17 4 -21 10 -3 5 -13 7 -23 4 -13 -5 -14 -4 -3 4 14 10 48 5 57 -9z
m-5186 -4 c0 -2 -6 -5 -13 -8 -8 -3 -14 1 -14 8 0 7 6 11 14 8 7 -3 13 -6 13
-8z m1555 -65 c-3 -5 -12 -10 -18 -10 -7 0 -6 4 3 10 19 12 23 12 15 0z m-35
-15 c0 -3 -24 -17 -52 -30 -58 -27 -53 -34 7 -9 20 8 41 14 46 12 12 -4 -1109
-481 -1271 -540 -30 -11 -74 -29 -97 -39 -51 -23 -54 -23 -47 -4 9 24 -10 17
-21 -7 -6 -12 -17 -23 -25 -25 -10 -3 -8 1 4 11 18 14 15 21 -7 17 -5 -1 -6 3
-2 9 3 6 10 8 15 5 5 -3 12 0 17 8 13 21 507 231 1103 469 96 38 207 82 245
98 75 30 85 33 85 25z m50 -9 c0 -2 -7 -7 -16 -10 -8 -3 -12 -2 -9 4 6 10 25
14 25 6z m965 -205 c-157 -58 -298 -117 -419 -178 -115 -57 -216 -115 -216
-124 0 -4 18 -10 40 -14 22 -4 40 -10 39 -13 0 -4 -69 -40 -152 -81 -179 -88
-428 -252 -590 -389 -248 -210 -508 -496 -689 -757 -82 -117 -159 -257 -153
-275 5 -11 3 -12 -5 -4 -33 33 214 402 442 659 179 202 463 454 660 585 20 13
35 27 33 31 -2 3 1 6 8 6 7 0 53 25 102 55 50 30 140 80 202 111 109 54 111
56 82 66 -58 20 -35 39 187 150 189 94 497 219 544 220 8 0 -43 -21 -115 -48z
m1392 28 c196 -22 362 -78 448 -153 l40 -35 -73 29 c-193 78 -300 99 -537 106
l-180 6 37 -26 c43 -30 65 -35 28 -6 l-25 20 46 0 c48 0 65 -14 53 -44 -7 -18
-34 -10 -34 9 0 8 -5 17 -10 20 -21 13 -3 -36 19 -51 21 -15 23 -15 37 2 14
18 14 18 5 -3 -9 -19 -7 -25 19 -43 17 -12 27 -26 24 -32 -4 -6 -10 -6 -17 1
-6 6 -15 11 -21 11 -5 0 -1 -6 10 -14 13 -10 23 -11 31 -4 13 11 58 -14 46
-25 -3 -4 -12 -2 -20 5 -7 6 -16 9 -18 6 -3 -2 24 -22 60 -43 36 -21 65 -40
65 -42 0 -17 -334 186 -419 255 -31 25 -22 49 21 55 70 8 273 6 365 -4z m-497
-81 c0 -24 9 -63 20 -88 13 -30 15 -38 5 -25 -9 11 -21 37 -27 59 l-12 39
-101 -7 c-100 -6 -209 -27 -246 -47 -18 -9 -8 -18 88 -85 59 -41 138 -89 176
-107 52 -25 66 -36 63 -50 -3 -13 0 -17 10 -13 8 3 13 2 9 -3 -3 -5 11 -15 31
-21 19 -7 33 -14 31 -17 -9 -8 -211 76 -272 114 -126 78 -225 166 -225 201 0
35 229 87 398 91 l52 1 0 -42z m370 16 c0 -8 -19 -13 -24 -6 -3 5 1 9 9 9 8 0
15 -2 15 -3z m100 -14 c0 -5 -2 -10 -4 -10 -3 0 -8 5 -11 10 -3 6 -1 10 4 10
6 0 11 -4 11 -10z m638 -34 c147 -57 263 -111 365 -170 237 -137 367 -252 580
-511 184 -224 246 -293 455 -507 100 -103 182 -192 182 -198 0 -6 -12 3 -27
20 -20 20 -40 31 -68 34 -94 11 -155 29 -229 65 -72 36 -106 43 -106 20 0 -5
-4 -9 -10 -9 -5 0 -7 8 -4 18 4 11 3 13 -3 5 -5 -7 -19 -10 -31 -6 -17 4 -21
10 -16 27 6 21 6 21 -10 1 -12 -15 -15 -16 -16 -5 0 12 -2 12 -8 2 -6 -9 -16
-10 -34 -3 -19 7 -31 6 -44 -4 -11 -8 -14 -15 -8 -15 5 0 15 5 22 12 8 8 12 8
12 1 0 -13 -28 -25 -41 -17 -5 3 -9 0 -9 -6 0 -7 -7 -10 -15 -6 -8 3 -15 1
-15 -4 0 -6 6 -10 13 -10 8 0 7 -3 -3 -10 -8 -5 -11 -12 -7 -16 4 -4 16 2 27
13 12 14 27 19 40 16 27 -7 26 -15 -2 -11 -11 2 -23 -3 -26 -11 -3 -10 2 -11
18 -6 16 5 20 4 15 -5 -4 -6 -17 -9 -30 -6 -13 3 -30 0 -37 -6 -7 -7 -20 -14
-28 -16 -11 -2 -10 2 3 12 12 9 14 16 7 21 -5 3 -8 10 -5 15 3 5 -6 21 -21 37
-61 66 -61 67 -41 60 11 -4 16 -3 12 4 -9 13 14 41 28 32 5 -3 7 -1 3 5 -3 6
-2 13 4 17 5 3 10 12 10 18 0 7 -5 4 -11 -7 -8 -13 -13 -15 -19 -6 -5 9 -9 9
-14 1 -4 -6 -2 -11 5 -11 8 0 8 -4 -1 -15 -10 -12 -15 -13 -20 -4 -6 8 -9 8
-14 0 -4 -6 -2 -11 3 -11 7 0 7 -7 -1 -21 -11 -17 -10 -22 5 -34 10 -7 14 -16
9 -19 -6 -3 -13 1 -16 10 -3 8 -10 12 -16 9 -6 -3 -7 0 -4 9 5 14 3 14 -25 0
-35 -17 -45 -30 -36 -44 4 -7 13 -6 27 1 17 9 18 13 7 20 -8 5 -9 9 -4 9 11
-1 45 -25 45 -33 0 -2 -7 -8 -16 -11 -8 -3 -12 -2 -9 4 3 6 1 10 -4 10 -6 0
-11 -7 -11 -15 0 -13 -4 -14 -20 -5 -15 8 -20 8 -20 -2 0 -8 -3 -9 -10 -2 -17
17 1 50 41 74 21 14 39 27 39 30 0 3 -7 16 -16 29 -13 18 -18 20 -25 10 -6
-10 -9 -8 -9 9 0 13 -4 20 -10 17 -6 -4 -8 -11 -5 -16 4 -5 1 -9 -4 -9 -18 0
-13 28 7 39 9 6 11 11 5 11 -7 0 -22 9 -33 20 -19 19 -56 18 -44 -2 4 -6 9 -6
14 2 5 8 12 7 24 -6 10 -9 13 -20 8 -23 -5 -3 -10 -19 -10 -34 0 -22 5 -28 17
-24 9 2 24 -6 34 -20 17 -22 17 -23 -2 -23 -10 0 -21 -5 -23 -11 -2 -7 -8 -6
-16 4 -10 12 -10 17 -1 23 8 4 9 3 5 -4 -4 -7 -2 -12 3 -12 6 0 11 7 11 15 0
8 -4 15 -9 15 -5 0 -16 3 -24 6 -12 4 -14 0 -10 -15 6 -22 -11 -28 -36 -12 -9
6 -10 11 -2 15 6 4 11 2 11 -4 0 -6 5 -8 10 -5 8 5 7 11 -1 21 -9 12 -15 12
-27 2 -13 -11 -14 -10 -10 2 3 8 17 15 31 15 21 -1 26 5 29 31 2 18 0 30 -4
28 -4 -3 -8 -14 -8 -25 0 -16 -5 -19 -36 -15 -44 6 -49 10 -35 33 10 17 10 17
11 -3 0 -15 6 -20 22 -19 12 1 24 7 26 13 2 8 -3 10 -15 6 -12 -4 -14 -3 -6 3
10 7 9 15 -1 35 -10 20 -11 29 -2 38 8 9 7 11 -4 8 -8 -2 -14 3 -13 10 2 6 -2
12 -8 12 -6 0 -8 -9 -4 -21 7 -20 3 -19 -36 8 -53 36 -198 125 -294 180 -138
80 -301 142 -612 234 -40 11 -73 25 -73 29 0 4 -6 7 -12 7 -33 -3 -90 17 -99
35 -10 18 -7 19 63 17 55 -1 72 2 70 11 -3 11 0 11 12 0 12 -9 16 -10 16 0 0
8 9 10 28 6 25 -6 24 -3 -18 36 -54 51 -114 127 -107 134 3 3 38 10 78 16 54
8 84 8 116 0 55 -15 76 -15 67 -1 -20 33 78 38 212 10 50 -10 112 -28 138 -40
26 -11 53 -18 61 -15 19 8 110 -14 160 -38 32 -15 36 -16 20 -2 -27 22 -96 54
-117 54 -10 0 -18 5 -18 10 0 6 6 10 14 10 8 0 18 -4 21 -10 3 -5 12 -10 18
-10 7 0 -1 11 -17 25 -17 14 -36 23 -43 21 -7 -3 -13 -1 -13 5 0 6 -5 7 -10 4
-8 -5 -7 -12 2 -23 12 -15 11 -16 -4 -4 -10 8 -14 20 -11 29 5 13 2 15 -11 10
-13 -5 -36 9 -83 53 -36 33 -115 98 -175 145 -126 98 -120 109 30 51z m-718
18 c0 -8 -19 -13 -24 -6 -3 5 1 9 9 9 8 0 15 -2 15 -3z m-457 -24 c2 -3 7 -18
11 -34 6 -23 4 -27 -8 -23 -9 4 -16 2 -16 -2 0 -5 6 -11 13 -14 9 -3 9 -9 -1
-26 -7 -12 -8 -21 -2 -21 5 0 10 -5 10 -11 0 -5 -4 -8 -8 -5 -5 3 -23 -8 -40
-25 l-31 -30 -30 22 c-17 13 -31 27 -31 31 0 5 -4 7 -9 4 -5 -3 -31 9 -57 28
-34 23 -48 39 -46 52 3 14 1 16 -11 6 -13 -11 -27 -7 -27 9 0 6 20 11 85 24
74 15 117 14 138 -1 12 -9 15 -14 7 -11 -8 2 -21 -2 -28 -9 -10 -11 -8 -16 10
-25 22 -12 22 -11 8 6 -14 17 -13 18 3 12 25 -9 34 20 11 37 -17 13 -16 14 13
12 17 -1 34 -3 36 -6z m-473 -64 c0 -22 -6 -24 -82 -36 -103 -16 -224 -50
-307 -87 l-63 -28 143 -43 c79 -23 153 -42 163 -42 11 0 16 -3 13 -7 -4 -3 -2
-12 4 -20 9 -9 8 -13 0 -13 -6 0 -11 5 -11 10 0 6 -4 10 -10 10 -21 0 -9 -29
18 -39 26 -10 25 -11 -8 -5 -104 16 -410 117 -410 134 0 4 22 22 48 39 126 81
326 146 460 150 38 1 42 -1 42 -23z m-2420 -30 c0 -2 -7 -7 -16 -10 -8 -3 -12
-2 -9 4 6 10 25 14 25 6z m2925 -16 c3 -5 1 -10 -4 -10 -6 0 -11 5 -11 10 0 6
2 10 4 10 3 0 8 -4 11 -10z m-415 -142 c23 -27 37 -48 31 -48 -6 0 -11 3 -11
8 0 4 -17 24 -36 46 -29 30 -38 35 -46 25 -6 -10 -7 -7 -3 8 10 34 -3 47 -26
27 -12 -11 -17 -25 -14 -38 5 -19 4 -18 -7 2 -10 19 -8 26 12 44 13 12 19 23
12 26 -6 2 -8 10 -5 19 5 11 12 4 29 -28 12 -24 41 -65 64 -91z m-294 97 c-7
-18 5 -20 22 -3 6 6 25 13 42 14 24 2 27 0 17 -11 -9 -9 -14 -10 -19 -1 -5 7
-8 5 -8 -6 0 -10 -6 -19 -12 -20 -7 0 -17 -2 -23 -2 -17 -2 -35 -17 -35 -29 0
-8 3 -8 12 1 15 15 52 16 43 2 -4 -6 -11 -7 -17 -4 -7 5 -9 1 -5 -9 4 -11 2
-14 -9 -10 -9 3 -14 -2 -14 -16 l0 -21 -20 20 c-22 22 -26 35 -7 24 7 -5 6 0
-3 11 -13 16 -15 16 -18 2 -2 -10 -8 -17 -14 -17 -5 0 -8 7 -5 15 5 11 1 12
-18 5 -23 -9 -29 -6 -26 13 0 4 -3 7 -9 7 -12 0 -13 -10 -2 -28 5 -7 16 -10
24 -7 14 6 35 -11 26 -20 -2 -2 -32 3 -66 12 -35 9 -60 19 -55 23 19 18 123
47 151 42 23 -3 33 0 38 12 3 9 8 16 11 16 3 0 3 -7 -1 -15z m674 -5 c0 -5 -5
-10 -11 -10 -5 0 -7 5 -4 10 3 6 8 10 11 10 2 0 4 -4 4 -10z m63 -5 c-3 -9 -8
-14 -10 -11 -3 3 -2 9 2 15 9 16 15 13 8 -4z m-79 -24 c3 -5 -1 -11 -9 -14 -9
-4 -12 -1 -8 9 6 16 10 17 17 5z m-694 -61 c12 -8 11 -10 -7 -10 -13 0 -23 5
-23 10 0 13 11 13 30 0z m-1700 -50 c-19 -11 -43 -19 -52 -20 -10 0 -18 -4
-18 -9 0 -5 -13 -12 -29 -16 -16 -3 -32 -12 -35 -20 -3 -9 17 -4 60 15 35 16
64 25 64 21 0 -5 -8 -11 -17 -14 -17 -5 -398 -175 -476 -212 -20 -9 -44 -15
-52 -11 -9 3 -13 2 -10 -4 3 -6 0 -10 -8 -10 -17 0 -37 -22 -42 -47 -2 -10 -4
-53 -4 -95 -1 -48 -5 -78 -12 -78 -5 0 -8 3 -6 8 3 4 1 25 -3 47 -8 36 -8 32
-8 -30 0 -101 -5 -111 -11 -25 -8 99 -3 162 13 153 6 -4 6 0 -2 9 -15 19 -7
61 16 80 10 8 127 60 262 116 135 56 277 115 315 131 79 34 108 40 55 11z
m2033 3 c-7 -2 -19 -2 -25 0 -7 3 -2 5 12 5 14 0 19 -2 13 -5z m1083 -3 c14 0
44 -27 44 -40 0 -5 -11 -4 -25 2 -19 8 -45 8 -107 -2 -46 -7 -98 -14 -115 -14
-18 -1 -33 -4 -33 -7 0 -3 -19 -12 -42 -19 -54 -16 -134 -56 -144 -72 -5 -7
-2 -9 9 -5 11 4 15 0 14 -13 -1 -16 -4 -17 -22 -7 -11 6 -23 10 -27 9 -17 -4
-7 18 14 32 12 9 19 18 16 21 -9 9 -59 -36 -52 -47 4 -6 52 -32 108 -59 56
-26 96 -48 90 -49 -16 0 -131 47 -168 69 -39 24 -61 65 -43 79 19 15 154 72
171 72 9 0 16 4 16 9 0 5 10 7 22 3 16 -4 19 -2 13 9 -6 11 -5 11 5 2 7 -6 19
-9 26 -6 8 3 14 -1 14 -8 0 -11 2 -11 9 0 6 10 35 16 93 19 45 2 85 6 87 8 2
2 -27 5 -65 6 -66 1 -67 1 -24 8 25 4 58 6 74 4 16 -2 34 -4 42 -4z m-3076
-10 c-8 -5 -19 -10 -25 -10 -5 0 -3 5 5 10 8 5 20 10 25 10 6 0 3 -5 -5 -10z
m1927 4 c-3 -3 -12 -4 -19 -1 -8 3 -5 6 6 6 11 1 17 -2 13 -5z m-645 -45 c-13
-5 -38 -12 -55 -15 -18 -3 -36 -9 -41 -15 -12 -11 -9 -11 31 0 20 6 35 6 38 0
4 -5 -2 -9 -13 -9 -29 0 -307 -142 -407 -208 -49 -33 -110 -79 -135 -102 l-45
-42 43 34 c131 100 279 190 350 212 18 6 22 3 22 -13 0 -16 5 -19 29 -16 46 6
33 -27 -20 -47 -24 -9 -37 -17 -29 -17 8 0 35 8 59 19 24 11 46 19 48 16 5 -5
-53 -39 -95 -56 -18 -7 -31 -15 -29 -17 3 -2 30 7 61 21 31 14 54 21 51 16 -3
-4 -2 -10 2 -13 5 -2 3 -2 -4 -1 -7 2 -15 -1 -18 -7 -4 -5 -3 -9 2 -8 20 4 27
-2 13 -12 -14 -10 33 -8 105 5 11 2 45 6 75 11 30 4 70 13 89 21 56 23 49 16
-31 -31 -80 -47 -123 -63 -53 -20 22 14 34 25 27 25 -7 0 -24 -7 -37 -16 -18
-11 -25 -13 -25 -4 0 8 -7 10 -17 5 -10 -4 -31 -8 -48 -10 -16 -1 -55 -14 -85
-29 -30 -14 -60 -26 -67 -26 -7 0 -9 -9 -5 -22 l5 -22 8 22 c11 29 29 28 29 0
0 -17 -3 -19 -9 -10 -6 10 -10 9 -14 -7 -3 -12 -9 -21 -14 -20 -22 4 -34 -3
-43 -26 -5 -14 -17 -25 -25 -25 -9 0 -13 -5 -9 -11 4 -6 19 -9 38 -5 25 5 28
4 13 -5 -10 -6 -27 -9 -38 -6 -13 3 -19 0 -19 -10 0 -10 6 -14 20 -10 11 3 20
0 20 -5 0 -7 -61 -9 -182 -5 -149 4 -195 9 -250 26 -40 13 -68 28 -68 36 0 22
96 130 163 183 117 93 286 191 407 236 72 27 244 60 182 35z m943 -34 c-24
-11 -26 -14 -10 -15 11 0 -11 -12 -50 -25 -88 -31 -275 -123 -275 -135 0 -5 7
-6 17 -3 10 4 14 2 10 -5 -4 -6 6 -17 22 -25 26 -13 30 -13 35 0 4 10 2 13 -7
10 -8 -3 -20 -1 -28 4 -10 6 -6 9 14 9 18 0 26 4 21 11 -3 6 -18 8 -33 5 -24
-6 -25 -5 -7 9 17 13 22 12 45 -4 14 -10 33 -16 41 -14 8 2 3 -7 -12 -20 -20
-19 -24 -28 -15 -35 24 -18 45 -21 51 -6 7 18 17 18 42 -2 18 -15 18 -15 -3
-5 -14 7 -24 8 -28 1 -3 -5 -1 -10 4 -10 6 0 11 -7 11 -15 0 -9 9 -15 24 -15
13 0 29 -7 36 -15 7 -8 22 -15 34 -16 11 0 30 -5 41 -10 18 -8 -22 -6 -157 6
-22 2 -60 19 -95 43 -59 40 -133 113 -133 132 0 27 349 158 420 158 8 0 2 -6
-15 -13z m-3237 -265 c1 -124 4 -261 7 -305 2 -44 7 -138 10 -210 3 -71 10
-186 15 -255 16 -201 20 -276 14 -263 -3 7 -11 10 -18 7 -7 -3 -13 1 -13 8 0
7 -3 33 -7 58 -6 48 -18 180 -38 405 -13 156 -17 734 -5 778 6 23 10 25 20 15
10 -10 14 -71 15 -238z m3233 207 c-10 -9 -11 -8 -5 6 3 10 9 15 12 12 3 -3 0
-11 -7 -18z m503 -26 c11 -4 15 -10 10 -13 -5 -4 -18 0 -29 8 -20 15 -12 17
19 5z m40 -27 c3 -8 2 -12 -4 -9 -6 3 -10 10 -10 16 0 14 7 11 14 -7z m-639
-14 c17 -18 17 -20 2 -14 -13 5 -16 2 -11 -12 4 -13 3 -15 -3 -6 -5 6 -18 19
-29 28 -18 14 -18 14 5 3 21 -10 23 -9 18 5 -8 21 -4 20 18 -4z m699 -1 c-3
-5 -14 -5 -25 1 -26 14 -24 18 6 12 14 -2 22 -8 19 -13z m181 11 c3 -6 -1 -7
-9 -4 -18 7 -21 14 -7 14 6 0 13 -4 16 -10z m30 0 c3 -5 1 -10 -4 -10 -6 0
-11 5 -11 10 0 6 2 10 4 10 3 0 8 -4 11 -10z m-2597 -25 c-3 -3 -9 2 -12 12
-6 14 -5 15 5 6 7 -7 10 -15 7 -18z m1612 15 c8 -5 11 -10 5 -10 -5 0 -17 5
-25 10 -8 5 -10 10 -5 10 6 0 17 -5 25 -10z m147 -12 c-3 -8 -6 -5 -6 6 -1 11
2 17 5 13 3 -3 4 -12 1 -19z m-1043 -3 c3 -8 1 -15 -4 -15 -6 0 -10 7 -10 15
0 8 2 15 4 15 2 0 6 -7 10 -15z m913 -9 c17 5 17 5 0 -6 -14 -9 -23 -8 -43 5
-25 16 -26 16 -19 -7 l8 -23 -22 20 c-21 18 -21 20 -4 26 10 4 28 1 40 -7 12
-8 30 -11 40 -8z m-847 0 c0 -2 -7 -7 -16 -10 -8 -3 -12 -2 -9 4 6 10 25 14
25 6z m958 -31 c-3 -3 -9 2 -12 12 -6 14 -5 15 5 6 7 -7 10 -15 7 -18z m-103
5 c3 -6 -4 -10 -17 -10 -18 0 -20 2 -8 10 19 12 18 12 25 0z m75 -20 c0 -5 -2
-10 -4 -10 -3 0 -8 5 -11 10 -3 6 -1 10 4 10 6 0 11 -4 11 -10z m-109 -23
c-10 -11 -24 -16 -30 -12 -17 10 5 34 30 32 19 -1 19 -2 0 -20z m44 14 c-3 -5
4 -13 16 -16 11 -4 18 -9 16 -12 -9 -8 -48 18 -42 28 4 5 8 9 11 9 3 0 3 -4
-1 -9z m-441 -84 c-12 -7 -19 -18 -17 -25 3 -7 -27 -27 -79 -51 -45 -21 -92
-46 -103 -56 -11 -9 -15 -14 -8 -11 6 4 14 2 18 -3 3 -6 12 -8 20 -4 8 3 15 1
15 -4 0 -5 6 -17 13 -28 11 -14 16 -15 22 -5 5 9 4 11 -3 6 -7 -4 -12 -5 -12
-2 0 2 -3 12 -7 21 -5 15 -1 17 30 13 20 -2 39 1 41 7 2 5 5 2 5 -7 1 -9 -11
-29 -26 -44 -16 -15 -21 -23 -13 -19 12 6 13 5 3 -6 -26 -27 -14 -36 42 -33
33 2 53 -1 50 -7 -4 -5 -21 -10 -38 -10 -18 -1 -24 -3 -14 -6 9 -2 17 -11 17
-19 0 -8 9 -14 21 -14 11 0 18 -4 15 -8 -5 -9 -96 -8 -220 2 -53 4 -98 15
-137 32 -79 35 -87 47 -53 73 14 11 31 18 37 14 5 -3 7 -1 4 4 -12 20 135 106
288 169 80 34 131 45 89 21z m-415 -1 c-2 -2 -20 -6 -39 -10 -25 -4 -31 -3
-20 4 14 9 69 15 59 6z m31 -5 c0 -5 -7 -11 -14 -14 -10 -4 -13 -1 -9 9 6 15
23 19 23 5z m907 -7 c-3 -3 -12 -4 -19 -1 -8 3 -5 6 6 6 11 1 17 -2 13 -5z
m-1024 -50 c-3 -8 -10 -14 -15 -14 -6 0 -6 6 1 14 8 10 9 16 1 21 -5 3 -10 12
-10 18 0 7 7 4 15 -6 7 -11 11 -25 8 -33z m89 17 c30 16 21 3 -19 -27 -24 -17
-31 -20 -21 -8 12 14 15 24 8 32 -7 9 -7 9 2 2 7 -6 18 -5 30 1z m2258 -35
c-16 -18 -24 -42 -29 -83 l-6 -58 -14 32 c-14 34 -8 97 11 121 6 6 22 12 36
12 l25 0 -23 -24z m-2417 -23 c-7 -2 -19 -2 -25 0 -7 3 -2 5 12 5 14 0 19 -2
13 -5z m439 -25 c-13 -13 -52 -19 -52 -7 0 8 53 28 59 22 3 -2 -1 -9 -7 -15z
m-437 2 c3 -5 1 -10 -4 -10 -6 0 -11 5 -11 10 0 6 2 10 4 10 3 0 8 -4 11 -10z
m545 1 c0 -5 -7 -12 -16 -15 -14 -5 -15 -4 -4 9 14 17 20 19 20 6z m2060 -20
c0 -3 11 -19 25 -34 14 -15 21 -27 16 -27 -5 0 -16 9 -24 21 -9 13 -17 16 -22
10 -9 -16 -51 -13 -64 3 -9 11 -9 20 -2 35 10 17 15 18 41 9 17 -5 30 -13 30
-17z m-4340 -32 c0 -22 -4 -38 -8 -35 -8 5 -4 76 4 76 2 0 4 -18 4 -41z m3923
23 c-2 -10 5 -26 16 -36 12 -11 21 -14 21 -8 0 22 28 12 34 -12 7 -30 101
-110 146 -124 42 -13 139 -27 160 -23 8 2 12 -1 7 -5 -4 -4 -27 -8 -50 -7 -25
0 -31 -1 -14 -4 43 -7 31 -20 -25 -27 -109 -13 -128 -9 -179 34 -48 40 -59 46
-59 32 0 -4 14 -16 31 -26 19 -11 28 -23 25 -32 -3 -9 -1 -12 4 -9 6 3 10 1
10 -4 0 -6 7 -11 16 -11 8 0 13 -4 10 -8 -10 -16 31 -52 84 -72 30 -12 56 -21
58 -21 1 1 12 0 25 0 17 -1 15 -3 -8 -8 -19 -4 -30 -13 -30 -23 0 -27 -9 -28
-21 -3 -9 19 -9 22 2 18 26 -10 14 6 -16 22 -33 17 -54 20 -45 5 3 -5 1 -10
-6 -10 -8 0 -7 -5 2 -17 13 -16 12 -17 -3 -5 -9 7 -15 22 -13 34 3 13 0 18 -9
15 -8 -3 -13 1 -12 10 0 9 -4 18 -11 20 -8 3 -11 -3 -8 -17 2 -12 0 -18 -6
-14 -6 3 -8 17 -5 30 5 18 2 24 -9 24 -10 0 -13 5 -9 12 4 7 3 8 -4 4 -11 -6
-17 6 -13 27 1 4 -4 7 -11 6 -19 -2 -31 0 -46 9 -10 7 -10 14 2 37 14 27 12
55 -4 55 -4 0 -13 14 -20 31 -7 17 -16 26 -19 21 -3 -6 -7 11 -8 36 -1 42 2
62 12 62 2 0 1 -8 -2 -18z m27 -12 c0 -5 -4 -10 -10 -10 -5 0 -10 5 -10 10 0
6 5 10 10 10 6 0 10 -4 10 -10z m35 0 c3 -5 1 -10 -4 -10 -6 0 -11 5 -11 10 0
6 2 10 4 10 3 0 8 -4 11 -10z m-2927 -74 c-15 -13 -37 -31 -50 -40 -15 -11
-19 -19 -12 -26 8 -8 15 -6 24 5 7 8 17 15 23 15 5 0 -57 -68 -139 -151 -82
-83 -148 -155 -146 -160 1 -6 -1 -8 -6 -5 -25 15 -251 -262 -307 -375 l-16
-34 20 25 c12 14 30 42 41 63 21 40 99 147 107 147 2 0 1 -10 -2 -22 l-7 -23
17 23 c9 12 18 31 20 42 5 25 27 48 41 43 6 -2 17 3 24 12 15 18 0 20 -20 3
-8 -7 -2 1 14 19 17 19 35 30 45 26 14 -4 14 -3 1 6 -8 6 -10 11 -5 11 6 0 16
-5 23 -12 9 -9 12 -9 12 0 0 6 -8 16 -17 21 -17 10 -17 10 0 11 9 0 17 -4 17
-10 0 -15 19 -12 43 8 22 17 28 44 14 58 -4 4 -10 -7 -13 -24 -3 -17 -12 -33
-20 -36 -17 -7 -18 6 -2 22 7 7 8 12 3 12 -5 0 2 11 14 24 22 24 58 26 44 2
-4 -6 1 -5 10 3 15 12 20 12 33 -5 14 -18 14 -17 3 5 -9 20 -9 23 3 19 11 -5
13 1 10 25 -4 25 -2 29 12 24 9 -4 16 -1 17 6 0 9 2 9 6 0 7 -19 20 -16 26 6
6 26 -1 33 -24 20 -11 -6 -19 -6 -19 0 0 5 12 12 26 15 21 6 24 9 14 21 -10
13 -8 15 16 15 17 0 24 -3 17 -8 -7 -4 -10 -22 -8 -41 5 -39 15 -54 15 -23 0
16 4 20 17 15 11 -4 14 -3 9 6 -5 7 -14 10 -22 7 -7 -3 -11 0 -8 7 2 7 20 12
39 12 19 -1 35 2 35 7 0 4 6 8 14 8 8 0 17 6 19 13 3 7 6 5 6 -5 1 -18 12 -23
24 -11 4 3 -2 17 -14 29 l-21 22 22 12 c12 6 24 9 27 7 2 -3 -5 -8 -17 -12
-20 -6 -21 -8 -4 -26 9 -10 21 -16 25 -13 5 3 9 0 9 -7 0 -9 3 -9 14 0 10 8
16 9 21 1 3 -5 1 -10 -5 -10 -6 0 -9 -4 -6 -9 6 -9 -23 -38 -33 -33 -3 1 -6
-1 -6 -5 -1 -5 -60 -68 -133 -141 -73 -73 -132 -138 -132 -145 0 -6 17 8 37
33 65 79 351 348 313 294 -8 -12 -34 -48 -56 -80 -47 -66 -122 -140 -206 -202
-31 -23 -60 -47 -64 -54 -4 -7 2 -5 14 5 12 11 26 16 33 11 7 -4 10 -3 6 3 -4
6 9 23 28 37 80 61 150 129 192 186 25 33 48 58 52 54 3 -4 0 -9 -6 -11 -7 -3
-13 -9 -13 -14 0 -6 6 -7 13 -4 6 3 2 -2 -10 -11 -13 -9 -23 -21 -23 -27 0 -7
4 -7 12 1 17 17 33 15 18 -3 -7 -8 -10 -25 -7 -37 3 -13 -1 -32 -9 -42 -12
-17 -14 -18 -14 -3 0 9 5 17 10 17 6 0 10 5 10 10 0 18 -18 10 -25 -10 -4 -11
-10 -18 -15 -15 -5 3 -12 0 -16 -6 -4 -8 -3 -9 4 -5 8 5 11 0 8 -16 -3 -13 -5
-27 -5 -32 -1 -4 -8 -6 -16 -2 -8 3 -15 1 -15 -4 0 -6 -6 -10 -14 -10 -9 0
-13 -9 -11 -25 1 -14 -2 -28 -6 -31 -5 -3 -9 0 -9 5 0 13 -10 14 -30 1 -12 -7
-12 -12 -2 -22 9 -9 12 -8 12 6 0 15 3 16 14 7 7 -6 22 -9 32 -6 11 4 6 -1
-10 -10 -17 -10 -42 -15 -62 -13 -36 4 -47 -10 -14 -19 21 -6 28 -23 9 -23 -6
0 -17 -7 -26 -15 -9 -9 -24 -13 -37 -10 -11 2 -15 2 -8 -1 6 -3 9 -10 6 -15
-3 -6 -12 -5 -22 3 -10 8 -13 9 -9 1 4 -7 -2 -19 -15 -29 -20 -14 -20 -16 -3
-10 46 16 150 81 256 160 106 80 129 91 129 63 0 -8 -3 -8 -9 2 -5 7 -10 9
-13 5 -7 -14 -4 -34 5 -34 4 0 11 0 15 0 5 0 32 23 60 50 29 28 52 47 52 42 0
-10 -27 -35 -145 -135 -44 -38 -79 -73 -77 -79 1 -5 -2 -7 -8 -3 -13 8 -52
-13 -45 -25 3 -5 -22 -25 -54 -45 -217 -131 -543 -235 -738 -235 -62 0 -64 1
-58 23 22 73 150 278 258 412 90 111 285 297 414 394 106 80 144 103 91 57z
m2737 4 c-3 -5 -12 -10 -18 -10 -7 0 -6 4 3 10 19 12 23 12 15 0z m99 -26 c3
-8 2 -12 -4 -9 -6 3 -10 10 -10 16 0 14 7 11 14 -7z m-10 -29 c3 -8 1 -15 -3
-15 -5 0 -11 7 -15 15 -3 8 -1 15 3 15 5 0 11 -7 15 -15z m39 -8 c3 -8 -1 -14
-9 -14 -15 0 -18 9 -7 20 9 9 10 9 16 -6z m-123 -7 c0 -5 -2 -10 -4 -10 -3 0
-8 5 -11 10 -3 6 -1 10 4 10 6 0 11 -4 11 -10z m15 -19 c-3 -6 -11 -11 -16
-11 -5 0 -4 6 3 14 14 16 24 13 13 -3z m795 -1 c-7 -14 -7 -20 0 -20 5 0 10
-4 10 -10 0 -5 -7 -7 -15 -4 -18 7 -19 26 -3 42 17 17 20 15 8 -8z m-2540 0
c8 -5 11 -10 5 -10 -5 0 -17 5 -25 10 -8 5 -10 10 -5 10 6 0 17 -5 25 -10z
m1876 -2 c-1 -7 -6 -19 -11 -27 -5 -10 -4 -16 3 -19 7 -2 18 -10 26 -17 7 -8
17 -11 22 -7 5 4 0 -3 -10 -16 l-19 -22 -19 32 c-28 45 -39 78 -28 78 6 0 10
-4 10 -10 0 -5 5 -10 10 -10 6 0 9 3 9 8 -2 11 1 22 5 22 2 0 3 -6 2 -12z
m807 -7 c26 -8 47 -17 47 -22 0 -4 -24 0 -52 10 -29 10 -58 16 -65 14 -6 -2
-14 0 -17 6 -8 12 22 9 87 -8z m-3513 -21 c13 -8 13 -10 -2 -10 -9 0 -20 5
-23 10 -8 13 5 13 25 0z m2630 -56 c0 -4 -13 5 -30 21 -16 16 -30 33 -30 38 0
5 14 -5 30 -21 17 -17 30 -34 30 -38z m16 38 c-17 -16 -18 -16 -5 5 7 12 15
20 18 17 3 -2 -3 -12 -13 -22z m964 8 c0 -12 -33 -5 -38 8 -2 6 5 8 17 5 12
-3 21 -9 21 -13z m809 -49 c1 -8 0 -12 -1 -10 -2 2 -19 22 -38 44 l-35 39 37
-30 c20 -16 37 -35 37 -43z m-4494 39 c3 -5 1 -10 -4 -10 -6 0 -11 5 -11 10 0
6 2 10 4 10 3 0 8 -4 11 -10z m3511 -16 c-2 -15 -10 -31 -19 -36 -22 -12 -57
7 -56 30 1 15 2 15 6 0 2 -9 11 -19 19 -22 18 -7 46 3 39 14 -5 8 4 40 10 40
2 0 2 -12 1 -26z m44 12 c0 -2 -7 -7 -16 -10 -8 -3 -12 -2 -9 4 6 10 25 14 25
6z m28 -43 c-9 -10 -18 -27 -21 -38 -4 -19 -5 -18 -6 2 0 12 6 29 15 37 8 9
12 22 8 28 -5 10 -4 10 6 1 11 -10 11 -16 -2 -30z m72 28 c0 -6 -5 -13 -11
-17 -8 -4 -8 -9 0 -17 14 -14 15 -30 1 -22 -5 3 -23 -8 -39 -26 -26 -27 -30
-28 -28 -10 1 12 7 20 16 18 7 -1 16 4 18 11 3 6 -3 12 -12 12 -14 0 -15 3 -5
15 7 8 19 15 26 15 8 0 14 7 14 15 0 8 5 15 10 15 6 0 10 -4 10 -9z m-3743 -7
c-3 -3 -12 -4 -19 -1 -8 3 -5 6 6 6 11 1 17 -2 13 -5z m2843 -20 c0 -8 -4 -14
-10 -14 -22 0 -8 -28 27 -53 21 -15 33 -27 27 -27 -6 0 -29 16 -53 36 -39 34
-45 49 -18 49 7 0 11 9 9 19 -2 11 1 15 7 11 6 -3 11 -13 11 -21z m109 -20
c14 -7 15 -13 6 -30 -11 -21 -11 -21 -34 -3 -17 14 -19 19 -8 19 8 0 17 -5 19
-12 3 -7 7 -8 11 -2 3 5 -3 15 -13 21 -15 10 -22 8 -41 -8 -24 -21 -34 -25
-24 -10 3 5 1 12 -5 16 -5 3 -10 11 -10 17 0 6 6 6 15 -2 13 -11 19 -9 38 11
18 19 22 20 25 7 2 -8 11 -19 21 -24z m561 22 c0 -2 -8 -10 -17 -17 -16 -13
-17 -12 -4 4 13 16 21 21 21 13z m105 -26 c-3 -5 -12 -10 -18 -10 -7 0 -6 4 3
10 19 12 23 12 15 0z m-2943 -28 c-35 -29 -34 -49 2 -30 11 6 -7 -18 -42 -52
-46 -46 -59 -66 -50 -71 10 -7 10 -9 1 -9 -8 0 -11 -11 -9 -32 2 -18 -1 -42
-6 -53 -6 -11 7 0 29 25 35 39 42 43 57 31 11 -10 16 -10 16 -2 0 7 4 10 9 6
5 -3 13 0 17 6 5 9 -1 10 -19 5 -21 -5 -25 -3 -21 8 3 9 16 18 27 22 12 4 24
9 27 13 3 3 18 17 34 31 l30 25 -23 -35 c-12 -19 -33 -57 -47 -83 -15 -29 -29
-45 -36 -41 -7 4 -8 3 -4 -4 4 -6 -2 -29 -14 -51 -11 -22 -17 -47 -14 -55 8
-20 64 -21 128 -2 34 10 46 11 43 3 -2 -7 -9 -12 -15 -12 -5 0 -14 -3 -18 -7
-4 -5 -2 -8 4 -8 7 0 12 -5 12 -11 0 -5 -4 -8 -9 -4 -5 3 -13 0 -17 -6 -5 -9
0 -10 17 -6 13 4 31 7 39 7 13 0 13 2 0 11 -12 9 -12 10 3 5 10 -3 26 -6 35
-7 27 -1 -128 -48 -181 -55 -78 -11 -87 -11 -192 -14 -83 -2 -92 -4 -55 -10
25 -4 53 -6 63 -4 9 1 17 -2 17 -8 0 -8 33 -9 108 -6 59 3 94 2 77 -2 -54 -14
-199 -10 -296 6 -132 23 -143 28 -134 62 21 90 221 302 390 415 51 35 59 34
17 -1z m2812 9 c3 -5 -5 -8 -18 -7 -13 0 -22 4 -19 9 6 10 31 9 37 -2z m441
-19 c-2 -3 -12 -1 -22 2 -15 6 -15 9 -3 16 13 8 35 -8 25 -18z m-340 8 c-3 -5
-11 -10 -16 -10 -6 0 -7 5 -4 10 3 6 11 10 16 10 6 0 7 -4 4 -10z m155 0 c0
-5 7 -7 15 -4 8 4 15 1 15 -5 0 -14 -27 -15 -35 -1 -4 6 -11 7 -17 4 -7 -4 -8
-2 -4 4 9 14 26 16 26 2z m-305 -10 c3 -5 -2 -11 -12 -11 -10 -1 -22 -2 -28
-4 -5 -1 -18 -3 -27 -3 -25 -3 -22 -22 3 -22 11 0 17 -5 14 -10 -4 -6 -10 -8
-15 -5 -4 3 -10 -2 -14 -10 -3 -8 -11 -15 -18 -15 -10 0 -9 3 1 9 19 12 6 41
-19 41 -12 0 -19 -4 -16 -9 9 -14 -20 -21 -33 -8 -20 20 -12 27 32 28 23 0 58
7 77 14 44 17 47 17 55 5z m-3630 -20 c-1 -21 -15 -41 -15 -22 0 6 -7 9 -16 5
-14 -5 -14 -3 -3 16 17 26 36 27 34 1z m3121 5 c17 -16 14 -18 -10 -9 -9 3
-16 10 -16 15 0 13 9 11 26 -6z m578 -6 c-8 -14 -24 -10 -24 6 0 9 6 12 15 9
8 -4 12 -10 9 -15z m121 0 c10 -30 2 -32 -12 -3 -6 13 -7 24 -3 24 5 0 12 -9
15 -21z m101 2 c-4 -5 -1 -11 4 -13 8 -2 8 -11 1 -28 l-10 -25 0 28 c-1 17 -5
26 -12 22 -6 -4 -8 -14 -4 -22 4 -13 3 -14 -9 -4 -13 11 -12 15 2 31 18 19 38
27 28 11z m-735 -25 c5 3 6 11 3 17 -5 9 -4 9 6 0 14 -13 5 -33 -14 -33 -8 0
-20 8 -27 17 -10 11 -10 14 -1 9 7 -4 12 -2 13 6 1 7 3 5 6 -5 2 -9 9 -15 14
-11z m453 16 c3 -5 -1 -9 -9 -9 -8 0 -15 4 -15 9 0 4 4 8 9 8 6 0 12 -4 15 -8z
m351 -2 c4 -6 15 -8 25 -5 10 3 22 0 26 -7 4 -7 4 -10 -1 -6 -4 4 -15 3 -25
-2 -14 -7 -18 -28 -11 -60 1 -3 9 4 17 15 l16 20 -4 -20 c-4 -29 -18 -35 -39
-17 -11 10 -15 19 -8 22 17 11 -2 41 -22 35 -11 -4 -19 -2 -19 4 0 6 10 11 23
12 21 1 21 1 -3 9 -23 7 -23 8 -3 9 12 1 25 -4 28 -9z m-867 -18 c2 -7 -2 -10
-12 -6 -9 3 -16 11 -16 16 0 13 23 5 28 -10z m152 -3 c0 -6 -4 -7 -10 -4 -5 3
-10 11 -10 16 0 6 5 7 10 4 6 -3 10 -11 10 -16z m158 14 c-10 -2 -18 -9 -18
-14 0 -5 -4 -9 -10 -9 -5 0 -7 7 -4 15 4 8 16 14 28 14 16 -1 17 -2 4 -6z
m197 -17 c13 -6 16 -10 7 -13 -15 -6 -42 14 -42 31 0 8 3 8 8 0 4 -6 16 -14
27 -18z m85 14 c0 -5 -5 -10 -11 -10 -5 0 -7 5 -4 10 3 6 8 10 11 10 2 0 4 -4
4 -10z m35 0 c3 -5 2 -10 -4 -10 -5 0 -13 5 -16 10 -3 6 -2 10 4 10 5 0 13 -4
16 -10z m-537 -31 c-2 -6 3 -14 11 -17 8 -3 11 0 7 7 -5 7 -1 9 9 4 12 -4 13
-8 5 -13 -9 -6 -7 -11 6 -19 35 -20 6 -11 -36 11 -40 21 -40 27 -2 37 1 1 1
-4 0 -10z m373 -12 c-10 -9 -11 -8 -5 6 3 10 9 15 12 12 3 -3 0 -11 -7 -18z
m94 13 c-3 -5 -10 -10 -16 -10 -5 0 -9 5 -9 10 0 6 7 10 16 10 8 0 12 -4 9
-10z m186 -3 c-7 -7 -14 -8 -21 -1 -6 6 -2 10 12 11 16 2 18 -1 9 -10z m497
-8 c-20 -13 -28 -11 -22 5 3 8 12 12 21 9 12 -5 12 -7 1 -14z m-1068 1 c0 -5
-2 -10 -4 -10 -3 0 -8 5 -11 10 -3 6 -1 10 4 10 6 0 11 -4 11 -10z m141 -15
c5 4 9 1 9 -5 0 -17 -25 -6 -26 11 -1 9 1 10 3 1 3 -7 9 -10 14 -7z m59 10 c7
-9 8 -15 2 -15 -5 0 -12 7 -16 15 -3 8 -4 15 -2 15 2 0 9 -7 16 -15z m460 11
c0 -3 -4 -8 -10 -11 -5 -3 -10 -1 -10 4 0 6 5 11 10 11 6 0 10 -2 10 -4z m450
-17 c0 -5 -9 -9 -21 -9 -11 0 -17 -4 -14 -10 3 -5 2 -10 -4 -10 -23 0 -20 20
4 26 14 3 22 11 18 17 -3 6 -1 7 5 3 7 -4 12 -11 12 -17z m-1000 -1 c0 -4 -4
-8 -9 -8 -6 0 -12 4 -15 8 -3 5 1 9 9 9 8 0 15 -4 15 -9z m246 -26 c-4 -3 -11
0 -16 8 -15 24 -11 33 6 15 9 -9 13 -19 10 -23z m289 13 c14 1 27 -1 30 -4 6
-11 -47 -12 -61 0 -15 12 -24 -13 -19 -53 3 -30 -1 -33 -25 -18 -13 8 -12 10
3 10 9 0 17 5 17 10 0 6 -4 10 -10 10 -5 0 -2 16 7 35 13 27 19 32 25 21 4 -8
19 -13 33 -11z m235 6 c0 -10 -7 -21 -15 -25 -12 -4 -13 -2 -6 13 6 10 7 21 4
25 -3 3 -1 6 5 6 7 0 12 -9 12 -19z m217 -45 c-29 -30 -54 -52 -56 -50 -2 2 3
12 13 23 15 16 15 19 1 24 -8 4 -15 11 -15 17 0 6 8 4 17 -5 16 -16 19 -15 47
17 17 19 34 33 38 31 4 -2 -16 -28 -45 -57z m-1056 31 c-10 -9 -11 -8 -5 6 3
10 9 15 12 12 3 -3 0 -11 -7 -18z m186 1 c-3 -8 -6 -5 -6 6 -1 11 2 17 5 13 3
-3 4 -12 1 -19z m80 -3 c-15 -16 -22 -11 -13 10 3 9 10 13 16 10 6 -4 5 -11
-3 -20z m157 16 c-9 -9 -34 -9 -34 -1 0 5 9 8 20 7 10 -1 17 -3 14 -6z m70
-25 c-3 -15 -8 -25 -11 -23 -2 3 -1 17 3 31 3 15 8 25 11 23 2 -3 1 -17 -3
-31z m46 30 c0 -3 -4 -8 -10 -11 -5 -3 -10 -1 -10 4 0 6 5 11 10 11 6 0 10 -2
10 -4z m206 -31 c-3 -18 -36 -55 -50 -55 -6 0 -3 5 7 11 10 6 22 22 27 35 10
27 19 32 16 9z m47 2 c3 -8 -1 -14 -8 -14 -7 0 -11 6 -8 14 3 7 6 13 8 13 2 0
5 -6 8 -13z m80 -2 c4 -8 1 -17 -5 -21 -7 -4 -8 -3 -4 4 4 7 2 12 -4 12 -6 0
-8 5 -5 10 8 14 12 13 18 -5z m-793 -5 c0 -5 -2 -10 -4 -10 -3 0 -8 5 -11 10
-3 6 -1 10 4 10 6 0 11 -4 11 -10z m40 6 c0 -2 -7 -6 -15 -10 -8 -3 -15 -1
-15 4 0 6 7 10 15 10 8 0 15 -2 15 -4z m313 -17 c5 -3 2 -9 -5 -12 -9 -3 -14
3 -15 15 -1 11 1 16 5 12 4 -5 11 -12 15 -15z m-238 1 c3 -5 -1 -10 -10 -10
-9 0 -13 5 -10 10 3 6 8 10 10 10 2 0 7 -4 10 -10z m525 6 c0 -2 -11 -11 -24
-20 -18 -11 -27 -13 -32 -4 -4 6 -3 8 3 5 6 -4 16 0 23 8 11 14 30 21 30 11z
m-660 -15 c0 -6 -9 -9 -19 -8 -11 0 -17 5 -15 9 7 11 34 10 34 -1z m180 -1
c12 -7 10 -9 -8 -7 -12 0 -22 5 -22 9 0 11 12 10 30 -2z m120 5 c0 -2 -10 -10
-22 -16 -21 -11 -22 -11 -9 4 13 16 31 23 31 12z m479 -18 c0 -9 -2 -8 -6 1
-2 6 -10 9 -15 6 -7 -4 -8 -2 -4 5 9 13 26 5 25 -12z m-3819 9 c0 -2 -6 -9
-14 -15 -11 -9 -16 -9 -22 0 -4 7 -3 9 4 5 6 -3 13 -2 17 4 6 10 15 14 15 6z
m470 0 c0 -2 -7 -7 -16 -10 -8 -3 -12 -2 -9 4 6 10 25 14 25 6z m3484 -4 c2
-4 0 -14 -6 -22 -8 -12 -9 -12 -4 3 5 14 1 16 -21 11 -18 -5 -24 -4 -19 5 8
13 42 15 50 3z m-779 -20 c-3 -3 -11 0 -18 7 -9 10 -8 11 6 5 10 -3 15 -9 12
-12z m270 8 c-3 -5 -12 -10 -18 -10 -7 0 -6 4 3 10 19 12 23 12 15 0z m-335
-10 c0 -5 -5 -10 -11 -10 -5 0 -7 5 -4 10 3 6 8 10 11 10 2 0 4 -4 4 -10z
m645 0 c3 -5 -1 -10 -10 -10 -9 0 -13 5 -10 10 3 6 8 10 10 10 2 0 7 -4 10
-10z m75 -20 c0 -6 -9 -2 -20 7 -11 10 -20 19 -20 21 0 1 9 -2 20 -8 11 -6 20
-15 20 -20z m85 19 c16 -1 15 -2 -5 -8 -14 -4 -27 -4 -30 -1 -3 4 -12 10 -20
14 -8 3 -4 4 10 1 14 -2 34 -5 45 -6z m-750 -19 c2 -4 -7 -5 -20 -2 -14 2 -25
8 -25 12 0 10 38 1 45 -10z m-3229 -19 c-16 -16 -35 -27 -42 -24 -21 8 -17 22
4 16 10 -2 26 5 36 16 11 12 21 21 24 21 3 0 -7 -13 -22 -29z m4271 3 c42 -32
43 -50 1 -24 -18 11 -47 20 -65 20 -33 0 -52 15 -31 23 30 12 63 5 95 -19z
m-997 0 c0 -2 -7 -4 -15 -4 -8 0 -15 4 -15 10 0 5 7 7 15 4 8 -4 15 -8 15 -10z
m570 12 c0 -3 -4 -8 -10 -11 -5 -3 -10 -1 -10 4 0 6 5 11 10 11 6 0 10 -2 10
-4z m151 -7 c11 -5 17 -14 14 -20 -10 -15 -25 -11 -25 7 0 10 -5 14 -16 10 -8
-3 -12 -2 -9 4 8 13 12 12 36 -1z m44 -20 c-11 -35 -8 -76 9 -109 9 -18 14
-35 11 -38 -3 -3 -14 17 -26 43 -18 40 -20 54 -11 83 6 20 8 40 5 45 -3 6 -1
7 6 3 6 -4 9 -16 6 -27z m-2745 17 c0 -2 -8 -10 -17 -17 -16 -13 -17 -12 -4 4
13 16 21 21 21 13z m2047 -18 c-3 -8 -6 -5 -6 6 -1 11 2 17 5 13 3 -3 4 -12 1
-19z m363 12 c0 -5 -2 -10 -4 -10 -3 0 -8 5 -11 10 -3 6 -1 10 4 10 6 0 11 -4
11 -10z m-2840 -4 c0 -2 -8 -10 -17 -17 -16 -13 -17 -12 -4 4 13 16 21 21 21
13z m3070 -6 c-12 -8 -12 -10 -1 -10 8 0 12 -3 8 -6 -9 -9 -28 6 -22 17 4 5
12 9 18 9 7 0 6 -4 -3 -10z m-521 -16 c10 -9 -35 -3 -49 6 -11 8 -7 9 15 4 17
-4 32 -8 34 -10z m871 -30 c0 -3 -13 4 -30 16 -16 12 -30 24 -30 26 0 3 14 -4
30 -16 17 -12 30 -24 30 -26z m-3069 -35 c-27 -34 -57 -75 -66 -93 -9 -17 -15
-23 -13 -13 3 20 109 167 120 167 5 0 -14 -28 -41 -61z m2236 55 c-3 -3 -12
-4 -19 -1 -8 3 -5 6 6 6 11 1 17 -2 13 -5z m475 -18 c10 6 11 4 0 -7 -10 -11
-15 -10 -30 6 -15 17 -15 18 0 6 9 -7 23 -9 30 -5z m-3351 -19 c-10 -9 -11 -8
-5 6 3 10 9 15 12 12 3 -3 0 -11 -7 -18z m2974 5 c-3 -3 -11 0 -18 7 -9 10 -8
11 6 5 10 -3 15 -9 12 -12z m-2799 -4 c-10 -6 -22 -6 -26 -2 -5 5 3 10 18 11
22 1 24 0 8 -9z m-66 -13 c7 -9 8 -15 2 -15 -5 0 -12 7 -16 15 -3 8 -4 15 -2
15 2 0 9 -7 16 -15z m-85 -25 c-3 -5 -14 -10 -23 -9 -14 0 -13 2 3 9 27 11 27
11 20 0z m603 -107 c-10 -2 -26 -2 -35 0 -10 3 -2 5 17 5 19 0 27 -2 18 -5z
m-1170 -143 c-7 -11 -17 -20 -22 -20 -5 0 -1 9 9 20 10 11 20 20 22 20 2 0 -2
-9 -9 -20z m-1099 -29 c-8 -10 -35 -48 -62 -84 -143 -195 -291 -488 -372 -735
-20 -64 -30 -65 -11 -2 68 223 247 576 386 761 35 47 38 54 23 60 -17 6 -9 10
41 18 5 0 2 -7 -5 -18z m1047 -55 c0 -13 -4 -22 -8 -20 -4 3 -12 -5 -18 -16
-7 -13 -7 -20 0 -20 5 0 10 5 10 11 0 6 6 9 14 6 7 -3 19 0 25 6 9 9 11 8 5
-6 -3 -10 -13 -16 -20 -13 -8 3 -14 1 -14 -3 0 -5 5 -11 10 -13 7 -2 -3 -35
-23 -78 -41 -91 -92 -229 -79 -215 5 6 15 27 22 48 13 42 48 80 67 73 7 -3 10
1 6 10 -3 7 0 14 7 14 6 0 8 5 5 10 -3 6 -1 10 4 10 6 0 11 -5 11 -11 0 -5 5
-7 10 -4 8 5 8 11 0 20 -8 10 -8 15 2 21 7 4 10 4 6 -1 -11 -12 11 -35 33 -35
11 0 19 7 19 15 0 8 7 15 15 15 8 0 15 7 15 15 0 8 5 15 11 15 5 0 8 4 4 9 -3
5 -1 12 5 16 5 3 10 3 11 -2 0 -4 2 -19 3 -33 2 -14 -14 -55 -35 -95 -21 -38
-39 -74 -38 -80 0 -5 9 8 21 30 22 43 137 237 146 245 2 3 1 -6 -3 -20 -14
-50 -104 -227 -154 -302 -28 -43 -49 -78 -46 -78 3 0 16 18 31 39 18 27 31 38
42 34 14 -4 14 -3 3 5 -16 11 -5 36 11 26 7 -4 8 -2 4 4 -4 6 14 47 40 92 45
77 60 98 47 64 -5 -14 -3 -15 18 -5 l24 12 -21 -18 c-17 -16 -19 -21 -7 -31
10 -10 10 -18 3 -32 -6 -11 -8 -20 -4 -20 3 0 1 -7 -6 -15 -6 -8 -9 -19 -5
-25 3 -5 3 -20 -1 -32 l-7 -22 -17 22 c-10 11 -20 18 -24 15 -11 -11 27 -43
53 -44 24 -2 24 -2 4 -6 -27 -5 -28 -11 -7 -41 9 -13 11 -22 4 -22 -6 0 -18
16 -26 35 -8 19 -21 35 -30 35 -8 0 -13 4 -9 9 3 5 0 13 -6 17 -8 5 -10 1 -7
-13 3 -11 1 -28 -4 -37 -6 -10 -5 -16 2 -16 5 0 10 7 10 15 0 20 10 19 26 -2
19 -26 17 -38 -3 -22 -16 13 -17 12 -4 -3 7 -10 17 -15 22 -12 5 3 9 -2 9 -11
0 -12 -6 -15 -20 -10 -14 4 -20 2 -20 -8 0 -8 -19 -20 -42 -27 -24 -7 -38 -15
-32 -17 35 -12 240 112 355 215 60 53 61 54 25 12 -22 -25 -46 -49 -53 -55
-16 -13 0 -41 17 -30 9 6 9 10 -1 17 -11 8 -10 9 3 4 17 -5 57 35 162 164 42
52 19 14 -33 -54 -184 -242 -431 -404 -711 -466 -130 -29 -130 -29 -130 25 0
90 55 298 111 423 58 127 144 292 154 292 1 0 2 -11 1 -24z m3501 18 c-3 -3
-12 -4 -19 -1 -8 3 -5 6 6 6 11 1 17 -2 13 -5z m-72 -9 c-5 -2 -36 -6 -69 -10
-58 -7 -58 -7 -31 -21 28 -15 49 -19 28 -6 -6 4 22 7 62 7 40 0 71 -3 69 -6
-2 -3 -33 -9 -68 -13 -186 -19 -353 -111 -411 -226 -58 -115 -78 -289 -45
-406 14 -52 15 -64 4 -50 -8 11 -14 26 -14 34 0 9 -7 11 -22 7 -21 -7 -22 -6
-5 6 16 13 15 14 -8 14 -14 0 -25 -3 -25 -8 0 -4 11 -40 25 -79 36 -102 23
-96 -16 9 -29 78 -33 99 -33 188 0 234 81 403 231 482 56 30 161 68 213 76 31
5 129 7 115 2z m118 -32 c-7 -2 -19 -2 -25 0 -7 3 -2 5 12 5 14 0 19 -2 13 -5z
m-4490 -140 c-15 -27 -38 -63 -50 -82 -13 -19 -23 -39 -23 -45 0 -6 6 -2 12 9
6 11 24 33 40 49 l29 30 -24 -55 c-14 -30 -48 -103 -76 -163 -70 -148 -107
-244 -166 -433 -3 -7 -1 -13 4 -13 5 0 12 16 15 35 4 19 14 39 24 44 9 6 12
11 6 11 -9 0 -8 9 0 35 14 39 22 49 39 51 7 0 20 2 30 2 16 2 16 4 1 27 -9 14
-20 22 -25 19 -5 -3 -9 -1 -9 4 0 5 11 10 25 10 20 0 24 -4 20 -19 -4 -11 -2
-19 4 -19 6 0 11 5 11 10 0 6 4 10 9 10 5 0 -2 -20 -16 -45 -24 -44 -38 -59
-27 -30 4 8 1 15 -5 15 -6 0 -11 -4 -11 -10 0 -5 -7 -7 -15 -4 -9 4 -15 0 -15
-10 0 -9 6 -15 13 -14 6 2 12 -4 11 -12 -1 -9 6 -22 14 -29 12 -12 13 -11 8 6
-4 13 1 26 14 38 21 19 42 13 22 -7 -16 -16 -15 -28 3 -28 8 0 15 -5 15 -11 0
-5 -5 -7 -12 -3 -7 5 -8 3 -3 -5 5 -10 14 -6 33 13 21 20 24 28 14 38 -9 9
-12 8 -12 -4 0 -9 -4 -19 -9 -22 -5 -4 -8 5 -7 18 2 14 -3 27 -10 30 -16 6
-19 32 -5 41 5 3 22 0 36 -7 20 -9 23 -13 12 -18 -13 -4 -14 -8 -2 -24 13 -17
15 -17 37 -2 12 9 17 16 11 16 -6 0 -14 9 -18 19 -4 12 -12 18 -21 14 -7 -3
-14 0 -14 7 0 6 5 8 10 5 6 -3 10 -2 10 3 0 16 -13 22 -27 11 -10 -9 -13 -8
-13 5 0 10 5 14 10 11 6 -3 10 -1 10 6 0 7 -10 9 -25 7 -14 -3 -25 -1 -25 3 0
12 47 11 55 -1 3 -5 11 -10 16 -10 5 0 0 10 -11 22 -24 26 -22 54 3 52 9 -1
17 2 17 7 0 5 -10 9 -22 10 -13 0 -17 3 -10 6 6 2 10 9 6 14 -3 5 0 9 7 9 8 0
7 5 -2 18 -12 15 -12 16 1 6 8 -6 29 -14 45 -18 l30 -6 -27 17 c-16 10 -28 22
-28 27 0 6 5 5 12 -2 18 -18 40 5 27 29 -6 12 -6 19 0 19 6 0 21 11 34 24 23
23 23 23 3 40 -17 13 -17 16 -4 16 9 0 20 -4 23 -10 3 -5 12 -10 18 -9 9 0 9
2 0 6 -7 2 -13 9 -13 14 0 5 10 4 23 -2 20 -11 21 -11 8 4 -7 10 -9 17 -3 17
5 0 8 9 5 20 -3 11 -1 20 5 20 6 0 9 -11 7 -25 -1 -16 2 -24 9 -22 6 2 11 10
11 18 1 20 14 39 28 39 8 0 8 -3 -1 -12 -7 -7 -12 -17 -12 -22 0 -6 5 -4 10 4
8 12 13 13 30 2 28 -17 25 -8 -10 28 -25 25 -27 32 -14 37 8 3 21 0 27 -6 9
-9 7 -10 -8 -5 -17 7 -18 5 -8 -7 13 -17 40 -18 62 -5 20 13 -14 -48 -73 -128
-29 -39 -76 -110 -106 -158 -29 -48 -57 -85 -62 -82 -5 3 -4 12 3 20 10 12 9
13 -5 8 -18 -7 -21 -20 -6 -29 18 -11 11 -23 -10 -18 -16 4 -19 2 -14 -11 3
-9 10 -16 15 -16 12 0 52 56 99 138 36 65 129 198 178 257 9 11 14 16 10 11
-10 -13 -10 -39 0 -32 4 2 6 -11 4 -30 -3 -22 0 -34 8 -34 7 0 9 -8 5 -21 -5
-15 -4 -19 4 -15 6 4 2 -16 -9 -44 -11 -28 -20 -54 -20 -58 0 -4 -5 0 -11 8
-8 11 -9 8 -4 -14 5 -22 3 -27 -8 -23 -11 4 -13 0 -10 -13 6 -22 29 -16 44 11
5 11 15 19 22 18 8 0 7 -2 -2 -6 -9 -4 -10 -7 -2 -13 13 -8 4 -40 -11 -40 -6
0 -5 6 2 15 8 9 8 15 2 15 -6 0 -19 -11 -30 -25 -19 -24 -20 -24 -25 -5 -3 11
-10 20 -15 20 -6 0 -8 -9 -5 -20 3 -11 0 -20 -6 -20 -6 0 -11 5 -11 10 0 15
-20 12 -21 -2 0 -7 -14 -24 -31 -37 -29 -24 -31 -24 -44 -6 -12 16 -9 23 25
60 21 23 44 53 50 66 11 23 11 23 -6 -1 -9 -14 -44 -52 -77 -84 -57 -56 -59
-59 -38 -67 14 -5 20 -14 16 -24 -3 -8 -1 -15 5 -15 17 0 13 31 -5 44 -14 11
-14 13 1 26 9 7 15 9 14 4 -4 -21 2 -35 11 -29 6 3 9 -3 7 -14 -1 -11 2 -20 8
-20 5 -1 10 5 10 13 0 8 14 25 30 37 18 14 24 16 16 6 -12 -15 -10 -20 13 -43
16 -17 32 -24 42 -20 14 5 15 4 4 -9 -10 -12 -16 -13 -27 -3 -11 9 -18 8 -31
-6 -16 -16 -16 -17 8 -13 14 2 19 2 13 0 -7 -3 -13 -9 -13 -15 0 -5 -8 -7 -17
-4 -9 4 -20 1 -24 -6 -4 -6 -24 -12 -44 -12 -33 0 -35 -1 -19 -13 12 -9 21
-10 28 -3 5 5 17 10 26 10 9 0 5 -7 -12 -18 -28 -19 -64 -22 -89 -7 -11 7 -12
6 -2 -7 7 -8 10 -18 6 -21 -3 -4 -1 -7 5 -7 6 0 14 5 17 10 3 6 12 10 18 9 9
0 9 -2 0 -6 -7 -2 -13 -9 -13 -14 0 -12 69 34 175 117 73 57 171 151 305 294
68 73 57 48 -18 -38 -32 -38 -45 -62 -32 -62 5 0 10 5 10 12 0 6 3 8 7 5 9
-10 -33 -48 -43 -39 -4 4 -4 1 0 -6 5 -9 -2 -25 -20 -45 -16 -18 -2 -7 30 23
l60 55 -42 -51 c-131 -162 -363 -340 -582 -448 -114 -56 -275 -114 -286 -104
-8 9 20 136 62 275 72 237 177 466 300 655 51 78 68 91 27 21z m1118 10 c-12
-20 -14 -14 -5 12 4 9 9 14 11 11 3 -2 0 -13 -6 -23z m-81 -3 c0 -5 -4 -10 -9
-10 -6 0 -13 5 -16 10 -3 6 1 10 9 10 9 0 16 -4 16 -10z m681 -87 c-12 -20
-14 -14 -5 12 4 9 9 14 11 11 3 -2 0 -13 -6 -23z m-16 -50 c-6 -24 -5 -25 12
-12 16 12 16 11 -1 -9 -11 -12 -17 -25 -14 -28 3 -3 15 6 26 20 l20 26 -1 -48
c0 -26 -2 -51 -6 -57 -13 -24 -10 -45 7 -45 15 0 15 2 2 11 -13 9 -13 10 0 6
8 -2 14 -12 14 -21 -1 -9 1 -16 5 -16 31 2 128 32 158 50 21 12 29 14 18 5
-11 -9 -19 -23 -17 -31 2 -8 -2 -14 -8 -14 -6 0 -8 4 -5 10 3 6 -1 7 -9 4 -24
-9 -19 -22 7 -19 36 4 37 4 31 19 -6 14 22 30 37 20 5 -3 28 9 52 26 l42 32
-45 -41 c-84 -77 -301 -168 -353 -148 -25 9 -61 167 -38 167 6 0 11 -17 12
-37 l1 -38 9 44 c12 64 39 151 45 151 4 0 3 -12 -1 -27z m95 -23 c-11 -11 -23
-20 -27 -20 -3 0 2 9 12 20 10 11 22 20 27 20 4 0 -1 -9 -12 -20z m-560 -20
c0 -5 -4 -10 -10 -10 -5 0 -10 5 -10 10 0 6 5 10 10 10 6 0 10 -4 10 -10z m31
-13 c-10 -9 -11 -8 -5 6 3 10 9 15 12 12 3 -3 0 -11 -7 -18z m529 -22 c-6 -8
-9 -19 -5 -25 3 -5 2 -10 -3 -10 -14 0 -22 38 -8 44 22 9 28 6 16 -9z m-1765
-15 c3 -5 -1 -10 -10 -10 -9 0 -13 5 -10 10 3 6 8 10 10 10 2 0 7 -4 10 -10z
m1815 2 c0 -4 -9 -8 -20 -8 -11 0 -20 4 -20 8 0 4 9 8 20 8 11 0 20 -4 20 -8z
m-630 -28 c0 -8 -5 -12 -10 -9 -6 4 -8 11 -5 16 9 14 15 11 15 -7z m35 6 c-3
-5 -12 -10 -18 -10 -7 0 -6 4 3 10 19 12 23 12 15 0z m510 0 c3 -5 -1 -10 -10
-10 -9 0 -13 5 -10 10 3 6 8 10 10 10 2 0 7 -4 10 -10z m60 -30 c-3 -5 -11
-10 -16 -10 -6 0 -7 5 -4 10 3 6 11 10 16 10 6 0 7 -4 4 -10z m-1825 -21 c0
-6 -4 -7 -10 -4 -5 3 -10 11 -10 16 0 6 5 7 10 4 6 -3 10 -11 10 -16z m298 -3
c-7 -8 -15 -12 -17 -11 -5 6 10 25 20 25 5 0 4 -6 -3 -14z m252 10 c0 -2 -8
-10 -17 -17 -16 -13 -17 -12 -4 4 13 16 21 21 21 13z m-650 -60 c0 -3 -4 -8
-10 -11 -5 -3 -10 -1 -10 4 0 6 5 11 10 11 6 0 10 -2 10 -4z m16 -66 l2 -35
-5 33 c-2 17 -6 32 -8 32 -15 0 -35 -15 -35 -26 0 -8 -4 -14 -10 -14 -13 0
-13 6 2 29 6 10 20 18 32 17 17 -1 21 -8 22 -36z m409 1 c3 -5 2 -12 -3 -15
-5 -3 -9 1 -9 9 0 17 3 19 12 6z m-434 -34 c-8 -8 -14 -8 -23 1 -9 9 -8 12 5
12 9 0 17 6 18 13 0 9 2 8 6 -1 3 -8 0 -19 -6 -25z m2337 -15 c35 -96 88 -312
78 -322 -7 -7 -5 -10 8 -10 14 0 16 -7 13 -40 -2 -22 -1 -40 4 -40 4 0 10 30
14 68 4 37 11 84 15 106 5 21 6 45 3 52 -3 8 1 14 11 14 12 0 14 -5 6 -25 -6
-16 -6 -25 0 -25 6 0 10 5 10 11 0 5 4 8 9 4 5 -3 12 9 15 27 2 18 3 -12 0
-67 -4 -97 -22 -200 -46 -258 -11 -27 -13 -28 -57 -22 -91 14 -200 60 -304
129 -67 45 -179 161 -207 216 -29 57 -25 60 11 7 34 -52 45 -60 27 -22 -6 14
-9 27 -7 30 3 2 41 -30 84 -71 78 -74 190 -152 202 -140 3 3 -3 9 -13 12 -28
10 -103 67 -104 79 0 6 -10 15 -22 20 -13 6 -22 17 -20 24 2 7 -5 22 -14 32
-9 10 -13 23 -8 30 4 7 3 10 -4 5 -6 -3 -13 -2 -17 4 -3 5 0 10 7 11 7 0 2 5
-11 10 -23 9 -22 11 30 42 30 18 60 37 68 41 11 7 13 5 9 -6 -4 -9 0 -15 8
-15 8 0 13 8 12 17 -3 16 59 96 67 88 2 -2 -8 -17 -22 -32 -26 -28 -26 -29 -7
-43 19 -14 19 -14 -1 -11 -30 5 -33 -43 -4 -60 18 -12 23 -12 31 0 6 9 7 5 2
-12 -6 -22 -5 -23 10 -11 9 8 19 11 23 7 3 -3 1 -6 -5 -6 -20 0 -13 -17 9 -23
12 -3 18 -10 14 -16 -3 -7 0 -8 9 -5 8 3 17 22 20 42 13 87 20 159 17 182 -4
33 9 19 27 -28z m-1928 22 c0 -8 5 -12 10 -9 19 12 10 -2 -17 -26 -18 -15 -22
-17 -11 -4 12 15 14 25 7 38 -7 11 -7 17 1 17 5 0 10 -7 10 -16z m-35 -14 c15
-7 11 -8 -17 -7 -21 1 -38 5 -38 10 0 9 30 8 55 -3z m-66 -17 c-1 -5 -1 -17 0
-28 1 -16 3 -17 10 -5 6 8 7 18 5 22 -3 4 4 8 15 8 14 0 21 -6 21 -20 0 -11
-5 -20 -11 -20 -6 0 -8 8 -5 18 4 10 -2 7 -14 -8 l-20 -25 -6 23 c-4 15 -12
21 -22 17 -12 -4 -13 -3 -2 10 13 16 31 20 29 8z m-359 -33 c0 -5 -5 -10 -11
-10 -5 0 -7 5 -4 10 3 6 8 10 11 10 2 0 4 -4 4 -10z m2244 -66 c3 -8 2 -12 -4
-9 -6 3 -10 10 -10 16 0 14 7 11 14 -7z m-2654 -139 c-7 -20 -14 -34 -17 -31
-3 2 0 21 7 41 7 20 14 34 17 31 3 -2 0 -21 -7 -41z m-26 -79 c-3 -15 -8 -25
-11 -23 -2 3 -1 17 3 31 3 15 8 25 11 23 2 -3 1 -17 -3 -31z m1501 -23 c-8
-21 -26 -83 -41 -138 -14 -55 -43 -134 -64 -175 -73 -145 -83 -173 -71 -192
15 -24 0 -23 -22 2 -21 25 -21 30 -2 30 8 0 14 3 13 8 -1 4 3 17 10 29 6 12 9
29 5 39 -4 11 -3 15 5 10 7 -4 17 13 28 51 8 32 22 78 29 103 10 37 95 234
112 263 12 20 11 3 -2 -30z m-1518 -35 c-3 -8 -6 -5 -6 6 -1 11 2 17 5 13 3
-3 4 -12 1 -19z m1843 -90 c-101 -176 -253 -344 -462 -512 -86 -70 -234 -166
-254 -166 -20 0 -25 38 -31 207 -6 169 11 348 43 444 l14 44 -5 -45 c-3 -25
-10 -63 -15 -85 -5 -22 -10 -52 -10 -67 l0 -28 20 20 c11 11 20 26 20 34 0 25
12 46 22 40 5 -4 5 -10 0 -17 -6 -7 -13 -78 -17 -159 -6 -118 -4 -148 6 -148
8 0 6 -5 -6 -13 -11 -9 -14 -16 -7 -21 7 -4 8 -17 2 -36 -10 -36 -8 -36 36 -9
33 20 44 39 23 39 -5 0 -7 -4 -4 -10 3 -5 1 -10 -4 -10 -6 0 -11 6 -11 14 0
19 35 30 83 27 20 -1 37 3 37 8 0 6 -14 9 -30 7 -26 -3 -30 -1 -25 15 5 16 2
17 -25 9 -17 -5 -28 -5 -25 0 3 4 -1 10 -7 13 -7 2 6 3 30 1 31 -2 42 1 42 12
0 8 6 14 14 14 25 0 27 -18 4 -35 -23 -17 -23 -17 -1 -11 12 4 24 2 28 -3 7
-12 80 42 160 118 149 141 165 154 165 137 0 -10 -4 -14 -10 -11 -5 3 -10 2
-10 -4 0 -5 5 -13 10 -16 17 -10 11 -21 -15 -33 -38 -17 -43 -14 -16 9 13 11
21 22 18 25 -3 3 -15 -4 -27 -16 -20 -20 -21 -23 -6 -38 13 -13 16 -13 16 -2
0 7 3 10 7 7 3 -4 -6 -21 -22 -37 -16 -17 -24 -30 -17 -30 14 0 153 163 169
198 7 15 12 23 13 17 0 -11 57 76 91 140 13 24 25 42 27 40 3 -2 -15 -37 -38
-77z m-1853 50 c-3 -8 -6 -5 -6 6 -1 11 2 17 5 13 3 -3 4 -12 1 -19z m1449
-35 c-8 -15 -15 -25 -16 -21 0 12 23 58 27 54 3 -2 -2 -17 -11 -33z m-1459 -5
c-3 -8 -6 -5 -6 6 -1 11 2 17 5 13 3 -3 4 -12 1 -19z m1522 -27 c-6 -18 -9
-35 -5 -38 3 -3 0 -13 -7 -21 -9 -13 -9 -14 1 -8 6 4 12 5 12 2 0 -2 3 -12 7
-22 4 -11 3 -15 -4 -11 -14 9 -43 -2 -43 -15 0 -7 5 -6 14 1 11 9 13 6 13 -16
0 -16 -2 -22 -4 -15 -3 6 -9 12 -15 12 -6 0 -8 -7 -5 -14 4 -10 1 -13 -8 -10
-10 4 -12 0 -8 -17 4 -15 3 -20 -5 -15 -7 4 -12 1 -12 -9 0 -9 -4 -13 -10 -10
-6 4 -3 20 9 43 10 20 31 74 46 120 15 46 29 81 31 79 2 -2 -1 -18 -7 -36z
m893 -108 c-33 -76 -75 -174 -94 -217 -18 -44 -39 -81 -45 -83 -14 -5 -127
106 -162 157 l-23 35 30 -34 c19 -23 33 -31 42 -26 9 5 11 4 6 -4 -12 -19 12
-39 44 -37 30 2 39 -7 20 -19 -6 -4 -19 -1 -28 5 -9 7 0 -4 20 -24 35 -33 68
-50 53 -26 -3 6 -1 10 6 10 6 0 9 8 6 20 -3 13 -1 18 6 13 7 -4 8 0 4 11 -4 9
-3 15 2 12 5 -3 14 8 20 24 6 18 6 30 0 30 -5 0 -9 -9 -9 -20 0 -22 -15 -27
-26 -9 -4 8 -9 7 -15 -2 -4 -8 -4 -16 2 -20 6 -4 6 -15 -1 -33 -9 -24 -13 -26
-26 -15 -14 11 -14 14 -2 23 21 15 19 48 -1 41 -13 -4 -12 -2 2 9 9 7 17 16
17 20 0 4 -8 3 -17 -3 -20 -10 -51 13 -33 24 6 3 10 1 10 -5 0 -8 10 -9 30 -5
19 4 30 3 30 -4 0 -6 6 -11 13 -11 6 1 2 9 -10 19 -30 25 -29 28 7 23 18 -2
30 0 30 7 0 6 -10 10 -22 8 -19 -2 -23 3 -23 29 0 26 3 30 23 26 13 -3 22 1
22 7 0 7 5 9 10 6 6 -3 10 -2 10 3 0 6 -7 12 -15 16 -8 3 -15 1 -15 -5 0 -5
-6 -4 -14 3 -8 7 -12 17 -9 22 3 4 9 2 14 -5 5 -8 9 -10 9 -6 0 4 9 3 20 -3
18 -10 20 -8 20 20 0 16 4 30 9 30 5 0 14 14 22 32 11 27 14 29 20 12 11 -28
10 -41 -1 -24 -9 13 -10 13 -11 0 -1 -8 0 -25 1 -37 1 -13 -4 -23 -10 -23 -7
0 -10 7 -6 15 3 8 1 15 -4 15 -12 0 -12 -17 -1 -45 7 -17 12 -13 34 31 14 28
23 54 20 58 -4 3 -2 6 3 6 6 0 16 16 23 36 7 19 15 33 18 30 4 -3 -21 -68 -55
-143z m-122 127 c0 -5 -2 -10 -4 -10 -3 0 -8 5 -11 10 -3 6 -1 10 4 10 6 0 11
-4 11 -10z m934 -6 c3 -8 2 -12 -4 -9 -6 3 -10 10 -10 16 0 14 7 11 14 -7z
m-41 -9 c-3 -9 -8 -14 -10 -11 -3 3 -2 9 2 15 9 16 15 13 8 -4z m-3196 -32
c-3 -10 -5 -4 -5 12 0 17 2 24 5 18 2 -7 2 -21 0 -30z m2333 22 c-7 -8 -17
-15 -23 -15 -6 0 -2 7 9 15 25 19 30 19 14 0z m-885 -12 c-4 -10 -15 -47 -25
-83 -9 -35 -22 -66 -29 -68 -7 -2 -9 3 -5 15 5 17 5 17 -10 -1 -15 -18 -37
-14 -35 7 0 9 2 8 6 -1 2 -6 9 -10 13 -7 5 3 6 13 3 22 -4 11 -3 14 5 9 7 -4
12 -2 12 5 0 6 8 18 18 25 15 12 14 12 -8 7 -24 -6 -24 -6 -7 11 9 10 15 22
12 27 -4 5 1 9 9 9 8 0 20 9 26 20 13 25 25 27 15 3z m327 -17 c-9 -19 -20
-32 -24 -29 -5 2 -8 -1 -8 -6 0 -6 -5 -11 -10 -11 -6 0 4 18 21 40 18 22 34
40 35 40 2 0 -4 -15 -14 -34z m1497 -12 c18 -31 19 -37 7 -50 -19 -18 -26 -18
-26 1 0 8 4 15 9 15 6 0 3 16 -5 35 -18 45 -12 45 15 -1z m-909 15 c0 -11 -29
-19 -34 -10 -3 5 -3 10 -1 13 8 7 35 5 35 -3z m-1140 -24 c0 -14 -5 -25 -11
-25 -5 0 -7 5 -4 10 3 6 1 10 -5 10 -7 0 -6 5 2 15 17 19 18 19 18 -10z m1955
-26 c-14 -38 -14 -43 2 -54 10 -7 22 -11 27 -8 5 4 7 -4 4 -15 -4 -15 -2 -22
8 -22 8 0 14 10 14 23 0 16 3 18 9 8 5 -8 16 -11 30 -6 21 6 29 25 11 25 -5 0
-10 -4 -10 -10 0 -5 -5 -10 -11 -10 -5 0 -7 5 -4 10 3 6 2 10 -3 10 -11 0 -35
50 -27 58 3 3 5 1 5 -4 0 -6 6 -18 13 -28 11 -15 18 -16 34 -7 17 8 22 8 27
-5 3 -8 11 -12 17 -8 7 4 9 3 6 -3 -4 -6 0 -16 8 -23 8 -7 16 -24 16 -39 1
-17 3 -20 6 -9 2 10 -3 42 -11 72 -9 30 -16 62 -15 73 0 10 7 -3 15 -29 8 -27
19 -48 24 -48 5 0 6 -7 3 -17 -4 -11 -3 -14 5 -9 7 4 12 1 12 -9 0 -9 -5 -13
-11 -9 -7 4 -6 -3 2 -17 7 -13 14 -28 14 -34 1 -5 7 -9 14 -7 7 1 10 -2 6 -8
-11 -18 6 -109 23 -127 15 -14 6 -15 -109 -11 -83 3 -152 12 -209 27 -88 24
-203 78 -195 92 3 4 -4 13 -15 19 -11 6 -20 8 -20 5 0 -4 -5 -3 -11 1 -8 5 -8
9 1 14 7 4 39 -3 72 -16 39 -15 66 -20 76 -15 11 6 5 10 -22 15 -20 4 -34 11
-32 15 3 4 -8 8 -24 9 -15 0 -42 8 -59 17 -17 8 -34 16 -38 16 -24 0 -60 14
-73 28 -13 13 -13 14 5 7 69 -28 172 -56 209 -56 86 0 144 42 168 121 6 22 15
39 19 39 5 0 2 -19 -6 -41z m-3188 9 c-3 -8 -6 -5 -6 6 -1 11 2 17 5 13 3 -3
4 -12 1 -19z m2363 12 c-8 -5 -19 -10 -25 -10 -5 0 -3 5 5 10 8 5 20 10 25 10
6 0 3 -5 -5 -10z m-26 -29 c3 -4 -6 -6 -19 -3 -14 2 -25 6 -25 8 0 8 39 4 44
-5z m-2315 -95 c-18 -41 -35 -74 -37 -71 -2 2 7 30 21 62 14 32 28 67 31 77 4
10 9 16 12 13 3 -2 -9 -39 -27 -81z m1715 76 c-6 -4 -14 -16 -18 -27 -6 -13
-10 -16 -13 -7 -6 15 14 42 31 42 8 0 8 -3 0 -8z m1016 -17 c16 -9 19 -14 10
-15 -9 0 -20 4 -25 9 -6 5 -19 11 -30 14 l-20 5 20 0 c11 1 31 -5 45 -13z
m485 5 c3 -5 -1 -10 -10 -10 -9 0 -13 5 -10 10 3 6 8 10 10 10 2 0 7 -4 10
-10z m-1832 -81 c-4 -13 -9 -17 -15 -11 -11 11 -3 32 12 32 4 0 6 -9 3 -21z
m62 -27 c-3 -3 -11 0 -18 7 -9 10 -8 11 6 5 10 -3 15 -9 12 -12z m-92 1 c-7
-2 -19 -2 -25 0 -7 3 -2 5 12 5 14 0 19 -2 13 -5z m-813 -63 c-7 -33 -8 -33
-9 -7 -1 16 -5 26 -11 22 -5 -3 -10 -1 -10 5 0 7 7 10 15 6 8 -3 15 -1 15 4 0
6 -5 10 -11 10 -5 0 -7 5 -3 11 13 21 23 -15 14 -51z m710 35 c-7 -9 -15 -13
-19 -10 -3 3 1 10 9 15 21 14 24 12 10 -5z m100 -6 c0 -5 -4 -9 -10 -9 -5 0
-10 7 -10 16 0 8 5 12 10 9 6 -3 10 -10 10 -16z m-43 -16 c-12 -26 -22 -29
-30 -9 -4 11 -1 13 10 9 12 -5 15 -2 11 9 -4 8 -1 15 7 15 10 0 11 -6 2 -24z
m161 -23 c-7 -11 -17 -20 -22 -20 -5 0 -1 9 9 20 10 11 20 20 22 20 2 0 -2 -9
-9 -20z m-958 -10 c0 -11 -4 -20 -9 -20 -5 0 -7 9 -4 20 3 11 7 20 9 20 2 0 4
-9 4 -20z m806 -5 c-18 -18 -32 -19 -42 -3 -4 6 -3 8 2 5 6 -3 16 -2 24 4 23
14 33 11 16 -6z m111 -7 c-3 -8 -6 -5 -6 6 -1 11 2 17 5 13 3 -3 4 -12 1 -19z
m1462 -41 c1 -9 -95 39 -103 51 -3 4 19 -3 49 -17 30 -14 54 -29 54 -34z
m-1484 25 c2 -25 2 -24 -19 -16 -16 6 -23 25 -8 23 20 -3 25 2 12 12 -12 8
-12 10 -1 7 8 -2 15 -14 16 -26z m-1236 -69 c-16 -66 -33 -169 -63 -388 -13
-90 -19 -332 -9 -338 13 -8 136 71 218 140 105 87 235 215 229 224 -3 5 0 8 7
7 18 -4 143 144 217 257 74 114 98 143 57 70 -126 -224 -396 -506 -640 -668
-103 -69 -105 -68 -105 56 0 217 45 546 95 705 3 6 6 12 8 12 2 0 -4 -35 -14
-77z m1055 61 c9 -24 2 -26 -12 -4 -7 11 -8 20 -3 20 5 0 12 -7 15 -16z m54
-5 c3 -12 2 -12 -6 0 -6 8 -15 10 -22 6 -9 -5 -11 -4 -6 4 10 15 28 10 34 -10z
m-797 -12 c-10 -9 -11 -8 -5 6 3 10 9 15 12 12 3 -3 0 -11 -7 -18z m3318 -67
c36 -36 85 -93 109 -127 40 -58 41 -63 24 -72 -30 -16 -242 -41 -346 -41 -93
0 -244 33 -270 60 -8 9 -5 9 14 2 36 -14 95 -32 103 -32 4 0 7 8 6 18 0 11 -2
12 -6 4 -4 -10 -8 -10 -19 -1 -8 6 -14 8 -14 3 0 -5 -4 -3 -9 4 -5 8 -24 18
-42 23 l-34 9 35 -5 c19 -3 55 -9 80 -14 61 -12 257 -24 247 -15 -4 4 -23 7
-42 6 -41 -2 -53 13 -26 30 18 11 18 13 3 26 -9 7 -11 10 -3 6 11 -5 13 -1 7
22 -5 23 -4 26 4 14 9 -11 13 -12 17 -2 2 6 9 12 15 12 6 0 4 -8 -5 -18 -21
-23 -21 -32 -2 -32 8 0 15 7 15 15 0 18 12 19 28 3 8 -8 12 -8 12 -1 0 6 -7
13 -15 17 -19 7 -19 55 0 80 16 21 11 40 -8 30 -7 -3 -3 2 8 11 20 16 20 17 1
30 -10 8 -23 12 -29 8 -6 -3 -7 -1 -4 5 15 23 80 -12 146 -78z m-2595 56 c-3
-8 -1 -17 5 -21 6 -3 11 -11 11 -18 0 -7 -7 -5 -16 5 -15 14 -14 48 0 48 3 0
3 -6 0 -14z m4397 -23 c-12 -20 -14 -14 -5 12 4 9 9 14 11 11 3 -2 0 -13 -6
-23z m-5084 -5 c-3 -8 -6 -5 -6 6 -1 11 2 17 5 13 3 -3 4 -12 1 -19z m2436 15
c3 -5 1 -17 -3 -28 -6 -17 -7 -16 -12 8 -5 25 5 37 15 20z m-2493 -33 c-6 -12
-14 -20 -17 -17 -2 3 1 14 8 26 17 26 24 19 9 -9z m907 24 c-3 -3 -12 -4 -19
-1 -8 3 -5 6 6 6 11 1 17 -2 13 -5z m2313 -40 c0 -3 -7 -1 -15 6 -8 7 -15 17
-15 22 0 5 7 3 15 -6 8 -8 15 -18 15 -22z m-2442 -3 c-18 -9 -37 -15 -42 -13
-5 3 6 13 25 23 19 9 38 15 42 12 5 -3 -7 -13 -25 -22z m1784 10 c-1 -6 -7
-57 -13 -114 -7 -56 -15 -105 -18 -110 -4 -4 -4 25 1 65 4 40 9 97 11 125 1
30 6 51 12 49 6 -2 9 -9 7 -15z m-2551 -14 c-10 -9 -11 -8 -5 6 3 10 9 15 12
12 3 -3 0 -11 -7 -18z m39 8 c0 -8 -4 -15 -10 -15 -5 0 -7 7 -4 15 4 8 8 15
10 15 2 0 4 -7 4 -15z m-315 -57 c-4 -29 -11 -62 -15 -72 -6 -19 -7 -18 -12 2
-4 12 -3 22 2 22 4 0 10 23 14 50 4 28 9 50 12 50 3 0 3 -24 -1 -52z m3440 12
c3 -6 -1 -7 -9 -4 -18 7 -21 14 -7 14 6 0 13 -4 16 -10z m1926 -17 c-12 -20
-14 -14 -5 12 4 9 9 14 11 11 3 -2 0 -13 -6 -23z m60 -10 c-12 -20 -14 -14 -5
12 4 9 9 14 11 11 3 -2 0 -13 -6 -23z m-4901 7 c0 -5 -5 -10 -11 -10 -5 0 -7
5 -4 10 3 6 8 10 11 10 2 0 4 -4 4 -10z m4881 -57 c-12 -20 -14 -14 -5 12 4 9
9 14 11 11 3 -2 0 -13 -6 -23z m-2651 3 c0 -3 -4 -8 -10 -11 -5 -3 -10 -1 -10
4 0 6 5 11 10 11 6 0 10 -2 10 -4z m630 0 c0 -2 -9 -6 -20 -9 -11 -3 -18 -1
-14 4 5 9 34 13 34 5z m1939 -55 c-12 -29 -23 -50 -25 -48 -2 2 6 27 18 55 12
28 23 50 26 48 2 -2 -7 -27 -19 -55z m-1929 24 c-7 -9 -15 -13 -18 -10 -3 2 1
11 8 20 7 9 15 13 18 10 3 -2 -1 -11 -8 -20z m550 -7 c0 -5 -11 -1 -25 8 -14
9 -25 18 -25 20 0 2 11 -2 25 -8 14 -6 25 -15 25 -20z m1436 -29 c-9 -19 -15
-29 -16 -22 0 15 22 64 27 60 2 -2 -3 -19 -11 -38z m-5401 4 c-4 -10 -7 -46
-7 -80 0 -45 -4 -66 -16 -75 -13 -11 -14 -11 -8 0 13 22 15 126 3 141 -9 11
-9 13 0 8 7 -4 14 1 18 14 4 11 9 18 12 15 3 -3 2 -13 -2 -23z m436 -16 l-24
-22 19 27 c10 14 21 24 23 22 3 -3 -6 -15 -18 -27z m3701 -27 c10 -6 24 -10
32 -10 20 0 129 -87 143 -114 7 -13 20 -26 29 -30 9 -3 14 -13 10 -21 -3 -8 4
-21 17 -30 12 -8 18 -15 13 -15 -4 0 -26 15 -49 34 -46 37 -115 76 -134 76
-28 0 -123 50 -123 64 0 9 -7 16 -15 16 -8 0 -15 5 -15 10 0 6 -9 10 -20 10
-14 0 -20 7 -20 21 l0 21 34 -21 c36 -22 46 -25 46 -13 0 4 -20 16 -45 27 -25
11 -45 22 -45 26 0 7 109 -33 142 -51z m-42 50 c8 -5 11 -10 5 -10 -5 0 -17 5
-25 10 -8 5 -10 10 -5 10 6 0 17 -5 25 -10z m70 -30 c8 -5 11 -10 5 -10 -5 0
-17 5 -25 10 -8 5 -10 10 -5 10 6 0 17 -5 25 -10z m-1552 -21 c13 -5 35 -10
50 -10 22 -1 23 -2 5 -6 -20 -4 -133 24 -133 33 0 5 43 -5 78 -17z m1316 5 c3
-8 2 -12 -4 -9 -6 3 -10 10 -10 16 0 14 7 11 14 -7z m-3538 -22 c-17 -16 -18
-16 -5 5 7 12 15 20 18 17 3 -2 -3 -12 -13 -22z m4980 -17 c-17 -40 -35 -73
-36 -64 0 10 40 99 46 99 2 0 -2 -16 -10 -35z m-2556 15 c0 -6 -26 -9 -62 -8
l-63 1 60 7 c33 4 61 7 63 8 1 1 2 -2 2 -8z m2471 -61 c-16 -35 -43 -95 -60
-133 -17 -38 -34 -67 -36 -64 -3 3 12 41 34 84 21 43 49 103 61 132 13 29 24
51 27 49 2 -2 -10 -33 -26 -68z m-4930 8 c-8 -8 -11 -7 -11 4 0 20 13 34 18
19 3 -7 -1 -17 -7 -23z m3674 -7 c-3 -5 0 -7 8 -4 8 3 21 -1 29 -8 7 -7 27
-20 43 -28 32 -17 45 -40 22 -40 -9 0 -18 8 -21 18 -3 10 -15 18 -26 19 -18 2
-16 -2 10 -29 23 -23 34 -28 43 -19 17 17 24 13 31 -20 4 -20 10 -28 17 -23 7
4 9 3 5 -4 -3 -6 2 -13 11 -17 10 -3 27 -18 37 -33 l19 -27 -30 28 c-18 17
-33 24 -37 19 -4 -6 4 -18 16 -26 30 -21 14 -21 -18 1 -18 12 -22 18 -12 24 9
6 7 12 -8 26 -12 10 -19 24 -17 31 3 6 0 12 -6 12 -6 0 -11 -14 -11 -32 0 -30
-1 -30 -19 -14 -12 11 -21 13 -25 7 -4 -6 6 -18 21 -28 15 -10 30 -20 33 -23
3 -3 24 -18 47 -34 24 -16 48 -35 55 -44 7 -8 -17 5 -54 31 -37 25 -76 48 -87
52 -12 3 -21 12 -21 19 0 8 -13 19 -29 26 -31 13 -79 56 -50 45 22 -8 46 22
30 38 -10 9 -11 8 -6 -5 5 -13 2 -18 -10 -18 -9 0 -13 5 -9 11 3 6 0 15 -7 20
-10 6 -11 9 -1 9 6 0 12 7 12 16 0 11 -5 14 -16 10 -14 -5 -15 -4 -4 9 14 16
45 21 35 5z m-4074 -23 c-10 -9 -11 -8 -5 6 3 10 9 15 12 12 3 -3 0 -11 -7
-18z m5325 -130 c-31 -65 -58 -117 -60 -117 -7 0 -1 15 58 138 27 56 51 101
53 99 2 -2 -21 -56 -51 -120z m-5309 61 c-3 -7 -5 -2 -5 12 0 14 2 19 5 13 2
-7 2 -19 0 -25z m4005 8 c6 4 8 3 5 -3 -4 -6 0 -16 8 -23 7 -6 11 -18 8 -26
-3 -9 2 -14 15 -14 12 0 24 -5 27 -10 4 -7 -3 -8 -22 -4 -39 9 -45 14 -39 31
4 9 2 11 -6 7 -6 -4 -8 -3 -4 4 3 5 -6 20 -21 32 -22 16 -23 19 -5 10 12 -6
28 -8 34 -4z m-94 -17 c3 -12 2 -12 -6 0 -6 8 -15 10 -22 6 -9 -5 -11 -4 -6 4
10 15 28 10 34 -10z m378 -76 c-4 -4 -86 77 -86 85 0 4 20 -14 45 -38 24 -24
43 -45 41 -47z m-4290 30 c-11 -11 -17 4 -9 23 7 18 8 18 11 1 2 -10 1 -21 -2
-24z m3994 1 c0 -2 -12 -4 -26 -4 -14 0 -23 4 -20 9 6 8 46 4 46 -5z m-4003
-36 c-3 -8 -6 -5 -6 6 -1 11 2 17 5 13 3 -3 4 -12 1 -19z m173 17 c0 -2 -10
-9 -22 -15 -22 -11 -22 -10 -4 4 21 17 26 19 26 11z m3846 -26 c42 -20 133
-109 156 -153 6 -11 -20 12 -57 52 -37 40 -82 80 -99 88 -31 14 -31 14 -6 -3
42 -28 126 -117 142 -150 9 -19 12 -36 7 -44 -7 -11 -9 -10 -9 4 0 10 -4 16
-8 13 -5 -3 -24 7 -43 23 -44 35 -136 91 -151 91 -6 0 -8 3 -5 7 4 3 2 12 -4
19 -6 7 -8 18 -4 25 6 8 10 8 16 -2 4 -7 12 -10 16 -5 4 5 2 11 -4 13 -7 3
-13 12 -13 21 0 14 -2 13 -13 -2 -12 -16 -14 -16 -26 -2 -12 14 -11 16 5 10
16 -5 16 -4 4 5 -24 17 -33 13 -28 -14 4 -20 3 -23 -8 -14 -10 8 -11 16 -3 31
9 16 17 19 52 14 22 -3 60 -15 83 -27z m305 -16 c13 -16 12 -17 -3 -4 -10 7
-18 15 -18 17 0 8 8 3 21 -13z m-4324 -30 c-3 -10 -5 -4 -5 12 0 17 2 24 5 18
2 -7 2 -21 0 -30z m5144 -132 c-86 -162 -213 -377 -238 -401 -8 -8 9 23 38 70
77 125 160 272 219 389 28 57 53 101 56 98 3 -2 -31 -73 -75 -156z m-5091 119
c0 -5 -2 -10 -4 -10 -3 0 -8 5 -11 10 -3 6 -1 10 4 10 6 0 11 -4 11 -10z m-40
-14 c0 -3 -4 -8 -10 -11 -5 -3 -10 -1 -10 4 0 6 5 11 10 11 6 0 10 -2 10 -4z
m5191 -115 c-57 -112 -158 -291 -174 -306 -6 -5 1 10 15 35 67 118 129 232
162 298 20 40 38 72 41 72 3 0 -17 -44 -44 -99z m-1228 59 c14 -11 32 -20 41
-20 9 0 16 -4 16 -9 0 -5 19 -23 43 -38 23 -16 41 -32 39 -36 -2 -5 4 -20 13
-35 16 -25 16 -26 1 -11 -10 9 -18 24 -20 33 -1 9 -6 17 -12 17 -5 0 -18 8
-29 19 -11 10 -47 36 -79 59 -33 23 -55 41 -49 41 6 0 22 -9 36 -20z m-2473
-20 c-6 -11 -13 -20 -16 -20 -2 0 0 9 6 20 6 11 13 20 16 20 2 0 0 -9 -6 -20z
m-30 -50 c-6 -11 -13 -20 -16 -20 -2 0 0 9 6 20 6 11 13 20 16 20 2 0 0 -9 -6
-20z m-102 -142 c-34 -46 -92 -113 -128 -150 l-65 -68 -19 28 -20 27 22 -19
c22 -19 23 -19 53 10 17 16 72 80 122 142 49 61 92 112 94 112 2 0 -24 -37
-59 -82z m603 -30 c21 -64 24 -92 24 -233 -1 -193 -15 -272 -51 -286 -35 -13
-98 -11 -174 5 -70 16 -186 63 -176 73 3 3 11 1 18 -5 24 -19 162 -61 223 -66
83 -8 120 3 120 37 -1 14 2 24 6 21 7 -4 19 55 19 94 0 19 -4 22 -21 17 -15
-5 -19 -4 -15 4 4 6 14 11 22 11 8 0 15 3 15 8 7 44 6 62 -3 62 -6 0 -8 -10
-4 -26 6 -24 5 -26 -18 -20 -23 6 -25 4 -23 -29 2 -38 6 -42 25 -23 8 8 12 8
12 1 0 -6 -11 -18 -25 -27 -14 -9 -25 -25 -25 -36 0 -10 -5 -22 -10 -25 -7 -5
-8 3 -3 22 11 40 8 259 -5 313 -11 44 -6 74 5 32 3 -12 10 -22 17 -22 6 0 4
-5 -4 -10 -13 -8 -12 -11 5 -25 11 -9 14 -14 7 -10 -10 5 -11 -8 -6 -62 7 -67
17 -93 37 -93 5 0 3 8 -6 18 -21 23 -22 36 -2 28 46 -17 41 138 -11 307 -3 9
-3 17 -1 17 3 0 16 -33 28 -72z m-856 -83 c15 -27 19 -41 10 -30 -19 23 -63
105 -47 90 5 -5 22 -32 37 -60z m847 -22 c-10 -4 -10 -8 0 -21 12 -15 11 -16
-4 -3 -19 14 -15 32 5 30 8 0 8 -2 -1 -6z m3048 -53 c-6 -11 -13 -20 -16 -20
-2 0 0 9 6 20 6 11 13 20 16 20 2 0 0 -9 -6 -20z m-3043 -64 c-22 -23 -31 -20
-13 5 15 22 12 49 -6 49 -5 0 -7 -10 -4 -22 6 -23 6 -23 -6 0 -9 19 -9 25 3
33 10 6 18 1 28 -20 12 -26 12 -31 -2 -45z m2986 -26 c-9 -17 -27 -41 -38 -53
-22 -25 -21 -24 19 41 30 48 47 58 19 12z m-72 3 c-5 -10 -17 -27 -26 -38 -16
-19 -17 -19 -3 5 26 46 29 50 34 50 3 0 0 -8 -5 -17z m-61 -92 c-5 -11 -15
-23 -21 -27 -6 -3 -3 5 6 20 20 30 30 35 15 7z m50 -35 c0 -2 -8 -10 -17 -17
-16 -13 -17 -12 -4 4 13 16 21 21 21 13z m-2913 -41 c0 -8 -6 -16 -13 -19 -7
-3 -10 2 -7 15 6 22 20 26 20 4z m-377 -21 c0 -2 -9 0 -20 6 -11 6 -20 13 -20
16 0 2 9 0 20 -6 11 -6 20 -13 20 -16z m3209 -48 c-17 -25 -45 -60 -61 -78
-16 -18 -4 2 28 45 31 42 58 77 61 77 2 0 -10 -20 -28 -44z m-69 4 c-11 -16
-26 -33 -32 -36 -7 -4 1 9 16 29 34 44 46 50 16 7z m-2813 -12 c-3 -8 -6 -5
-6 6 -1 11 2 17 5 13 3 -3 4 -12 1 -19z m2773 -41 c0 -2 -12 -14 -27 -28 l-28
-24 24 28 c23 25 31 32 31 24z m-78 -94 c-48 -60 -132 -155 -132 -148 0 7 151
185 157 185 3 0 -9 -17 -25 -37z m98 23 c0 -2 -8 -10 -17 -17 -16 -13 -17 -12
-4 4 13 16 21 21 21 13z m-108 -128 c-38 -46 -83 -94 -98 -108 -15 -14 6 13
47 60 41 47 83 97 94 112 11 14 22 24 24 22 2 -2 -28 -41 -67 -86z m-192 -125
c-82 -87 -87 -92 -70 -68 17 24 123 135 129 135 2 0 -24 -30 -59 -67z m20 -68
c-24 -25 -46 -45 -49 -45 -3 0 15 20 39 45 24 25 46 45 49 45 3 0 -15 -20 -39
-45z m-4190 -59 c0 -2 -8 -10 -17 -17 -16 -13 -17 -12 -4 4 13 16 21 21 21 13z
m4040 -90 c0 -2 -8 -10 -17 -17 -16 -13 -17 -12 -4 4 13 16 21 21 21 13z
m-100 -9 c0 -2 -10 -12 -22 -23 l-23 -19 19 23 c18 21 26 27 26 19z m-4683
-195 c13 11 13 8 -1 -14 -10 -16 -20 -28 -22 -28 -2 0 -3 21 -2 48 1 37 2 40
5 14 4 -29 6 -32 20 -20z m83 -407 c0 -5 -5 -3 -10 5 -5 8 -10 20 -10 25 0 6
5 3 10 -5 5 -8 10 -19 10 -25z m5318 -17 c-2 -6 -17 -13 -34 -15 l-29 -3 30
14 c38 18 37 18 33 4z m-5300 -23 c-3 -3 -9 2 -12 12 -6 14 -5 15 5 6 7 -7 10
-15 7 -18z m299 -27 c-3 -8 -6 -5 -6 6 -1 11 2 17 5 13 3 -3 4 -12 1 -19z
m4886 11 c-5 -5 -42 -20 -82 -33 -39 -12 -68 -26 -64 -30 4 -4 0 -4 -9 -1 -9
4 -19 1 -23 -4 -3 -6 -10 -9 -14 -6 -5 2 -42 -7 -82 -20 -40 -14 -78 -24 -83
-22 -6 2 30 16 79 31 50 16 133 43 185 61 52 18 97 33 100 34 2 0 -1 -4 -7
-10z m-5142 -54 l10 -20 -16 20 c-9 11 -21 29 -26 40 l-10 20 16 -20 c9 -11
21 -29 26 -40z m5169 41 c0 -2 -7 -7 -16 -10 -8 -3 -12 -2 -9 4 6 10 25 14 25
6z m-4923 -48 c-3 -8 -6 -5 -6 6 -1 11 2 17 5 13 3 -3 4 -12 1 -19z m4853 18
c0 -3 -4 -8 -10 -11 -5 -3 -10 -1 -10 4 0 6 5 11 10 11 6 0 10 -2 10 -4z
m-5049 -78 c15 -28 5 -21 -21 15 -15 20 -17 27 -6 18 9 -8 22 -23 27 -33z
m186 10 c-3 -7 -5 -2 -5 12 0 14 2 19 5 13 2 -7 2 -19 0 -25z m4758 22 c-3 -5
-12 -10 -18 -10 -7 0 -6 4 3 10 19 12 23 12 15 0z m-4864 -125 c32 -37 35 -42
10 -20 -18 17 -42 44 -54 60 -24 35 -15 27 44 -40z m96 28 c-3 -10 -5 -4 -5
12 0 17 2 24 5 18 2 -7 2 -21 0 -30z m1026 -3 c59 -22 178 -59 264 -81 l158
-41 140 -137 c77 -75 117 -118 90 -96 -28 22 -85 73 -128 115 -77 73 -104 92
-120 83 -11 -6 -38 17 -32 27 3 5 -29 16 -71 26 -65 16 -77 16 -86 3 -8 -12
-9 -11 -5 2 4 13 -9 21 -61 37 -136 42 -285 100 -261 102 3 0 53 -18 112 -40z
m3326 -7 c-33 -55 -111 -153 -155 -193 -21 -19 -9 -3 25 37 35 39 60 77 56 83
-3 6 -1 9 7 8 7 -2 12 5 12 14 -1 10 2 16 6 13 4 -3 15 7 25 21 16 25 16 26
-2 21 -10 -3 -33 -8 -50 -12 -40 -8 -53 -24 -15 -18 l27 4 -25 -15 c-14 -8
-36 -15 -50 -16 -15 0 -30 -4 -35 -8 -6 -5 -29 -15 -53 -22 -37 -12 -45 -12
-52 1 -6 9 -5 15 1 18 6 2 15 -2 19 -9 5 -8 11 -8 22 4 9 8 18 12 22 9 3 -4 6
-1 6 5 0 7 -7 12 -15 12 -8 0 -15 -5 -15 -11 0 -6 -7 -8 -16 -5 -8 3 -35 1
-59 -4 -40 -9 -172 -30 -302 -49 -29 -4 -50 -4 -48 0 3 3 31 10 62 14 92 10
492 92 558 114 33 10 61 19 63 20 2 1 -7 -16 -19 -36z m-3660 -107 c2 -45 -6
-27 -12 29 -4 34 -3 42 3 25 4 -14 8 -38 9 -54z m471 12 c10 -6 7 -7 -10 -2
-14 3 -32 11 -40 16 -10 6 -7 7 10 2 14 -3 32 -11 40 -16z m2900 11 c0 -6 -7
-8 -16 -5 -8 3 -13 2 -10 -3 3 -5 -17 -13 -44 -18 -27 -6 -47 -6 -44 -1 3 4
14 8 25 8 11 0 17 4 14 10 -3 5 0 7 8 4 8 -3 18 -1 22 5 8 14 45 14 45 0z
m-2763 -47 c13 -8 23 -6 38 6 19 16 19 16 6 0 -15 -20 -2 -25 17 -6 6 6 15 9
18 5 4 -3 -4 -11 -18 -17 -20 -9 -38 -8 -89 8 -49 16 -56 20 -27 17 20 -2 45
-8 55 -13z m2370 12 c-3 -3 -12 -4 -19 -1 -8 3 -5 6 6 6 11 1 17 -2 13 -5z
m-2951 -112 c-5 -5 -26 59 -25 77 0 9 7 -4 14 -29 8 -24 13 -46 11 -48z m704
43 c23 -19 39 -35 36 -35 -3 0 -26 16 -52 35 -25 19 -41 35 -36 35 6 0 29 -16
52 -35z m2070 -6 c10 -6 4 -8 -20 -7 -19 1 -41 6 -49 12 -12 9 -13 8 -9 -5 5
-13 -10 -18 -100 -27 -59 -7 -145 -14 -192 -17 -70 -4 -77 -3 -41 5 24 5 48 7
52 4 5 -3 9 -2 9 3 0 7 31 10 128 13 23 0 31 4 26 13 -5 9 -4 9 5 1 14 -13 77
-1 96 17 11 11 0 11 -90 -1 -89 -13 -127 -15 -365 -23 l-195 -6 180 10 c99 5
241 18 315 27 119 16 141 16 185 4 28 -8 57 -18 65 -23z m-2040 21 c0 -5 -2
-10 -4 -10 -3 0 -8 5 -11 10 -3 6 -1 10 4 10 6 0 11 -4 11 -10z m343 3 c-7 -2
-19 -2 -25 0 -7 3 -2 5 12 5 14 0 19 -2 13 -5z m342 -23 c127 -5 250 -10 274
-10 l43 0 -16 -25 c-9 -13 -16 -26 -16 -29 0 -9 63 -26 73 -19 6 4 8 0 5 -8
-3 -9 9 -23 33 -38 21 -14 36 -27 34 -29 -3 -3 -13 2 -23 11 -10 10 -21 17
-25 17 -3 0 -32 15 -64 33 l-58 34 -150 2 c-147 1 -256 9 -264 17 -2 2 6 4 18
4 12 0 19 4 16 10 -3 6 -2 10 4 10 5 0 12 -6 15 -12 5 -10 7 -10 12 1 5 9 8
10 14 2 3 -7 14 -9 23 -5 35 13 4 21 -101 28 -60 4 -122 11 -138 16 -25 8 -22
9 16 5 25 -3 149 -10 275 -15z m-196 -36 c9 -8 -75 -2 -94 6 -12 5 1 6 35 3
30 -3 57 -7 59 -9z m51 9 c-8 -3 -18 -11 -22 -17 -4 -6 -10 -7 -15 -3 -9 10
16 27 37 26 13 -1 13 -1 0 -6z m-500 -13 c-8 -5 -19 -10 -25 -10 -5 0 -3 5 5
10 8 5 20 10 25 10 6 0 3 -5 -5 -10z m1038 -35 c31 -25 97 -74 145 -109 50
-36 84 -67 78 -71 -6 -3 -11 -2 -11 4 0 17 -239 181 -255 175 -9 -4 -15 0 -15
10 0 10 -5 13 -17 9 -15 -6 -16 -5 -3 10 8 9 16 16 18 17 1 0 28 -20 60 -45z
m490 28 c-10 -2 -28 -2 -40 0 -13 2 -5 4 17 4 22 1 32 -1 23 -4z m582 4 c0 -2
-17 -19 -37 -38 l-38 -34 34 38 c33 34 41 42 41 34z m-999 -134 c13 -16 12
-17 -3 -4 -17 13 -22 21 -14 21 2 0 10 -8 17 -17z m-846 -33 c10 -11 16 -20
13 -20 -3 0 -13 9 -23 20 -10 11 -16 20 -13 20 3 0 13 -9 23 -20z m40 -30 c3
-5 1 -10 -4 -10 -6 0 -11 5 -11 10 0 6 2 10 4 10 3 0 8 -4 11 -10z m-944 -17
c13 -16 12 -17 -3 -4 -17 13 -22 21 -14 21 2 0 10 -8 17 -17z m1844 -33 c-3
-5 -12 -10 -18 -10 -7 0 -6 4 3 10 19 12 23 12 15 0z"/>
<path d="M7465 10590 c-3 -5 -1 -10 4 -10 6 0 11 5 11 10 0 6 -2 10 -4 10 -3
0 -8 -4 -11 -10z"/>
<path d="M2235 6909 c-4 -6 -5 -12 -2 -15 2 -3 7 2 10 11 7 17 1 20 -8 4z"/>
<path d="M2255 6899 c-4 -6 -5 -12 -2 -15 2 -3 7 2 10 11 7 17 1 20 -8 4z"/>
<path d="M2585 9880 c-3 -5 -1 -10 4 -10 6 0 11 5 11 10 0 6 -2 10 -4 10 -3 0
-8 -4 -11 -10z"/>
<path d="M6200 10195 c0 -8 4 -15 10 -15 5 0 7 7 4 15 -4 8 -8 15 -10 15 -2 0
-4 -7 -4 -15z"/>
<path d="M5810 9896 c0 -2 7 -6 15 -10 8 -3 15 -1 15 4 0 6 -7 10 -15 10 -8 0
-15 -2 -15 -4z"/>
<path d="M7068 10089 c23 -11 42 -24 42 -29 0 -5 6 -7 13 -4 10 3 13 -4 12
-25 -2 -38 5 -50 34 -56 17 -3 21 0 17 13 -9 29 8 46 33 33 28 -15 27 -24 -1
-16 -22 6 -22 6 -4 -9 22 -18 36 -20 36 -7 0 5 9 7 20 4 11 -3 20 -13 20 -22
0 -14 -2 -14 -10 -1 -7 11 -12 12 -21 3 -8 -8 -18 -9 -31 -2 -14 7 -18 6 -18
-5 0 -10 6 -13 15 -10 8 4 15 2 15 -4 0 -11 -18 -11 -38 2 -22 13 -23 0 -2
-19 12 -11 20 -13 20 -6 0 7 4 10 9 7 5 -3 14 1 21 9 7 8 17 12 22 9 6 -4 5
-10 -3 -15 -7 -4 -10 -11 -5 -16 4 -4 12 0 18 10 9 18 10 18 23 0 7 -10 11
-21 9 -24 -2 -4 3 -12 11 -19 10 -9 15 -9 15 -1 0 6 -3 11 -7 11 -5 0 -9 11
-9 25 l-2 25 34 -30 c42 -36 67 -41 27 -4 -27 24 -27 25 -3 13 44 -21 79 -52
73 -62 -4 -6 -1 -7 6 -2 8 4 28 -5 51 -24 46 -37 68 -42 25 -6 -107 89 -282
190 -442 254 -65 26 -82 26 -25 0z m107 -69 c3 -5 1 -10 -4 -10 -6 0 -11 5
-11 10 0 6 2 10 4 10 3 0 8 -4 11 -10z"/>
<path d="M7070 10050 c14 -11 30 -24 37 -30 15 -13 23 -13 23 -1 0 5 -9 13
-20 16 -11 4 -18 11 -15 16 3 5 -1 6 -9 3 -9 -3 -16 -1 -16 5 0 6 -6 11 -12
11 -7 -1 -2 -10 12 -20z"/>
<path d="M7387 9873 c-11 -11 -8 -21 9 -27 15 -6 15 -4 3 11 -12 15 -12 16 4
10 9 -3 17 -2 17 3 0 11 -23 13 -33 3z"/>
<path d="M6820 9855 c-14 -8 -42 -14 -62 -15 -21 0 -38 -4 -38 -10 0 -5 7 -7
17 -3 13 5 15 2 11 -15 -4 -15 -2 -19 8 -15 8 3 11 9 8 15 -6 9 21 21 40 18 5
-1 13 4 17 12 7 11 11 10 19 -2 8 -12 10 -11 10 8 0 26 2 25 -30 7z"/>
<path d="M6653 9833 c9 -2 25 -2 35 0 9 3 1 5 -18 5 -19 0 -27 -2 -17 -5z"/>
<path d="M7480 9756 c0 -2 8 -10 18 -17 15 -13 16 -12 3 4 -13 16 -21 21 -21
13z"/>
<path d="M6518 9658 c6 -6 18 -8 28 -6 14 3 12 5 -9 10 -19 3 -25 2 -19 -4z"/>
<path d="M6645 9615 c17 -8 37 -14 45 -14 8 0 -1 7 -20 14 -46 18 -64 17 -25
0z"/>
<path d="M7407 9569 c7 -7 15 -10 18 -7 3 3 -2 9 -12 12 -14 6 -15 5 -6 -5z"/>
<path d="M7346 9533 c5 -5 12 -12 16 -18 4 -6 8 -2 8 8 0 9 -7 17 -17 17 -9 0
-12 -3 -7 -7z"/>
<path d="M7380 9489 c0 -5 5 -7 10 -4 6 3 10 8 10 11 0 2 -4 4 -10 4 -5 0 -10
-5 -10 -11z"/>
<path d="M7205 9479 c-9 -13 25 -40 43 -34 6 2 12 -2 12 -10 0 -8 3 -14 8 -13
12 3 62 -25 62 -34 0 -5 4 -7 9 -3 5 3 12 1 15 -4 11 -17 -15 -23 -32 -8 -9 8
-28 18 -42 22 -24 7 -24 7 -5 -9 11 -8 24 -16 28 -16 5 0 22 -9 38 -21 16 -11
29 -16 29 -10 0 6 -5 11 -11 11 -5 0 -7 5 -4 10 10 17 37 -10 30 -29 -5 -12
-3 -13 5 -5 17 17 -14 74 -40 74 -11 0 -20 4 -20 10 0 5 -12 16 -27 24 -16 8
-23 15 -16 16 19 0 102 -54 103 -67 0 -7 10 -13 23 -13 18 0 19 -2 7 -11 -13
-10 -13 -10 0 -6 16 5 43 -17 33 -27 -3 -3 -14 -1 -23 4 -13 7 -20 6 -24 -5
-6 -18 7 -27 28 -19 11 4 15 2 11 -8 -6 -15 49 -53 64 -44 5 3 20 -6 35 -21
14 -14 26 -20 26 -14 0 7 5 9 10 6 6 -4 8 -10 5 -15 -3 -5 -1 -11 5 -15 5 -3
10 1 10 9 0 8 -5 18 -10 21 -6 4 -7 11 -4 17 4 6 12 1 21 -13 l14 -24 -7 25
-7 25 24 -20 c22 -19 23 -19 9 -1 -14 18 -13 19 5 13 20 -7 20 -7 1 8 -22 16
-36 19 -36 7 0 -4 -9 -8 -19 -9 -25 -2 -35 24 -14 35 11 6 12 11 4 16 -6 4
-11 1 -11 -6 0 -10 -3 -9 -10 2 -6 9 -5 17 3 22 6 4 8 10 4 15 -5 4 -11 3 -15
-3 -4 -5 -14 -9 -22 -9 -8 0 -17 -11 -20 -24 -3 -13 -11 -26 -18 -27 -7 -1 -8
0 -3 2 6 4 7 14 1 30 -8 19 -7 23 3 18 24 -14 1 5 -68 56 -85 63 -142 93 -161
86 -8 -3 -13 -2 -10 3 3 5 -1 12 -10 15 -22 9 -32 7 -39 -5z m32 -5 c-3 -3
-12 -4 -19 -1 -8 3 -5 6 6 6 11 1 17 -2 13 -5z m314 -176 c1 -7 1 -18 0 -25
-1 -6 3 -14 9 -18 5 -3 10 -12 10 -18 0 -7 -12 1 -26 18 -14 16 -20 31 -15 33
6 2 9 8 5 13 -3 5 0 9 5 9 6 0 12 -6 12 -12z"/>
<path d="M7440 9436 c0 -8 31 -50 65 -89 16 -18 17 -18 30 0 11 14 16 16 26 6
7 -7 18 -13 24 -13 11 0 -35 39 -47 40 -5 0 -7 -6 -5 -12 3 -18 -26 -16 -30 2
-4 13 -3 13 6 0 8 -11 11 -11 11 -2 0 7 -8 15 -17 19 -10 3 -28 18 -40 32 -12
14 -22 22 -23 17z"/>
<path d="M7480 9435 c0 -11 30 -37 39 -33 5 2 -2 11 -15 21 -13 10 -24 15 -24
12z"/>
<path d="M7220 9421 c0 -5 7 -11 15 -15 8 -3 15 -1 15 3 0 5 -7 11 -15 15 -8
3 -15 1 -15 -3z"/>
<path d="M7588 9323 c7 -3 16 -2 19 1 4 3 -2 6 -13 5 -11 0 -14 -3 -6 -6z"/>
<path d="M7620 9301 c0 -6 3 -11 8 -11 4 0 25 -17 48 -37 22 -21 47 -39 55
-41 16 -4 15 -3 -58 57 -29 24 -53 38 -53 32z"/>
<path d="M7750 9200 c0 -6 11 -16 25 -22 14 -6 25 -18 25 -26 0 -9 3 -12 6 -9
4 3 15 2 25 -4 35 -18 19 -1 -31 35 -27 20 -50 31 -50 26z"/>
<path d="M7759 9113 c-13 -17 -13 -17 6 -3 11 8 22 16 24 17 2 2 0 3 -6 3 -6
0 -17 -8 -24 -17z"/>
<path d="M7886 9107 c5 -13 55 -39 61 -33 2 2 -12 13 -31 24 -19 11 -33 15
-30 9z"/>
<path d="M7796 9072 c29 -29 47 -35 26 -9 -7 8 -8 18 -4 22 4 5 2 5 -5 1 -6
-3 -14 -2 -18 4 -3 5 -11 10 -17 10 -6 0 2 -13 18 -28z"/>
<path d="M7845 9079 c-4 -6 -5 -12 -2 -15 2 -3 7 2 10 11 7 17 1 20 -8 4z"/>
<path d="M7980 9050 c14 -13 24 -26 23 -31 -2 -5 5 -5 14 -2 12 5 14 3 8 -7
-5 -9 -4 -11 3 -6 13 8 95 -41 88 -52 -2 -4 9 -7 25 -8 16 -1 29 0 29 2 0 1
-35 21 -77 44 -43 24 -91 52 -108 62 l-30 20 25 -22z"/>
<path d="M7933 9043 c-13 -5 31 -53 49 -53 5 0 7 -4 3 -9 -3 -6 3 -9 12 -9 10
0 23 0 28 -2 21 -5 36 0 29 11 -4 8 -9 7 -15 -2 -7 -11 -9 -11 -9 -1 0 7 -4
10 -10 7 -5 -3 -10 -1 -10 5 0 6 -4 9 -9 6 -10 -7 -57 33 -53 45 1 5 1 9 0 8
-2 0 -8 -3 -15 -6z"/>
<path d="M7895 9010 c-3 -5 -1 -10 6 -10 7 0 9 -3 6 -6 -4 -4 -14 -1 -22 6
-13 11 -16 11 -13 -1 2 -8 10 -20 18 -27 13 -12 13 -13 -3 -8 -11 4 -16 2 -12
-5 4 -6 14 -8 22 -5 11 5 13 1 8 -15 -6 -18 -4 -20 16 -14 21 7 48 32 49 45 0
3 -14 11 -30 18 -17 8 -28 18 -24 23 3 5 1 9 -5 9 -5 0 -13 -4 -16 -10z m41
-35 c4 -8 11 -12 18 -8 8 4 8 3 0 -6 -13 -14 -44 -4 -44 15 0 19 19 18 26 -1z"/>
<path d="M8435 8889 c-4 -12 -2 -26 5 -33 10 -8 11 -6 5 12 -3 12 -2 22 3 22
12 0 33 -25 27 -32 -3 -2 2 -5 10 -5 11 0 8 8 -12 29 -15 15 -28 28 -29 28 -2
0 -6 -9 -9 -21z"/>
<path d="M5807 10140 c-3 -11 -1 -20 4 -20 5 0 9 9 9 20 0 11 -2 20 -4 20 -2
0 -6 -9 -9 -20z"/>
<path d="M5693 10137 c-3 -5 -11 -6 -19 -3 -8 3 -14 1 -14 -4 0 -13 17 -12 60
5 33 13 34 14 7 12 -16 -1 -31 -5 -34 -10z"/>
<path d="M5705 10100 c3 -5 8 -10 11 -10 2 0 4 5 4 10 0 6 -5 10 -11 10 -5 0
-7 -4 -4 -10z"/>
<path d="M5690 10080 c0 -5 5 -10 11 -10 5 0 7 5 4 10 -3 6 -8 10 -11 10 -2 0
-4 -4 -4 -10z"/>
<path d="M5747 10057 c-3 -8 -2 -20 3 -26 5 -9 8 -4 8 13 0 29 -3 32 -11 13z"/>
<path d="M5770 10053 c0 -15 18 -35 23 -27 3 5 -1 15 -9 22 -8 7 -14 9 -14 5z"/>
<path d="M5736 9988 c3 -4 9 -8 15 -8 5 0 9 4 9 8 0 5 -7 9 -15 9 -8 0 -12 -4
-9 -9z"/>
<path d="M5060 9979 c0 -5 5 -7 10 -4 6 3 10 8 10 11 0 2 -4 4 -10 4 -5 0 -10
-5 -10 -11z"/>
<path d="M5105 9970 c4 -6 11 -8 16 -5 14 9 11 15 -7 15 -8 0 -12 -5 -9 -10z"/>
<path d="M3216 9774 c-11 -8 -16 -14 -10 -14 13 0 39 18 34 24 -3 2 -14 -2
-24 -10z"/>
<path d="M3145 9740 c-3 -5 -1 -10 4 -10 6 0 11 5 11 10 0 6 -2 10 -4 10 -3 0
-8 -4 -11 -10z"/>
<path d="M2820 9611 c0 -7 -5 -9 -12 -5 -7 5 -8 3 -3 -5 5 -9 10 -10 18 -2 6
6 8 14 4 18 -4 3 -7 1 -7 -6z"/>
<path d="M2784 9593 c4 -8 2 -13 -5 -13 -10 0 -10 -3 -1 -12 8 -8 15 -9 22 -2
8 8 6 15 -6 25 -12 9 -15 10 -10 2z"/>
<path d="M6214 9795 c-10 -8 -14 -14 -9 -15 15 0 40 18 34 24 -3 3 -14 -1 -25
-9z"/>
<path d="M6170 9783 c-8 -3 -23 -15 -35 -26 -19 -19 -19 -19 0 -9 23 12 63 42
55 41 -3 0 -12 -3 -20 -6z"/>
<path d="M4465 9410 c-3 -5 -1 -10 4 -10 6 0 11 5 11 10 0 6 -2 10 -4 10 -3 0
-8 -4 -11 -10z"/>
<path d="M4414 9342 c4 -7 2 -19 -4 -27 -7 -9 -8 -15 -2 -15 16 0 24 32 11 44
-9 8 -10 8 -5 -2z"/>
<path d="M5464 9476 c11 -9 24 -16 30 -16 12 0 7 5 -24 19 -24 11 -24 11 -6
-3z"/>
<path d="M2410 9731 c0 -5 5 -13 10 -16 6 -3 10 -2 10 4 0 5 -4 13 -10 16 -5
3 -10 2 -10 -4z"/>
<path d="M2460 8560 c0 -22 3 -40 8 -40 4 0 6 18 4 40 -2 22 -6 40 -8 40 -2 0
-4 -18 -4 -40z"/>
<path d="M4985 9320 c3 -5 8 -10 11 -10 2 0 4 5 4 10 0 6 -5 10 -11 10 -5 0
-7 -4 -4 -10z"/>
<path d="M4955 9240 c-3 -5 -1 -10 4 -10 6 0 11 5 11 10 0 6 -2 10 -4 10 -3 0
-8 -4 -11 -10z"/>
<path d="M5018 9183 c7 -3 16 -2 19 1 4 3 -2 6 -13 5 -11 0 -14 -3 -6 -6z"/>
<path d="M6915 9410 c-3 -6 1 -7 9 -4 18 7 21 14 7 14 -6 0 -13 -4 -16 -10z"/>
<path d="M6760 9132 c0 -12 19 -26 26 -19 2 2 -2 10 -11 17 -9 8 -15 8 -15 2z"/>
<path d="M3750 9165 c-11 -13 -10 -14 4 -9 9 3 16 10 16 15 0 13 -6 11 -20 -6z"/>
<path d="M3920 8840 c8 -5 20 -10 25 -10 6 0 3 5 -5 10 -8 5 -19 10 -25 10 -5
0 -3 -5 5 -10z"/>
<path d="M3555 8831 c-3 -6 4 -9 15 -8 11 1 20 5 20 9 0 11 -28 10 -35 -1z"/>
<path d="M3518 8823 c-23 -6 -23 -19 0 -25 12 -4 18 1 19 13 1 11 1 18 0 18
-1 -1 -10 -3 -19 -6z"/>
<path d="M3606 8815 c-4 -13 -2 -14 14 -5 23 13 26 20 6 20 -8 0 -16 -7 -20
-15z"/>
<path d="M4034 8787 c-17 -20 -24 -46 -14 -52 6 -4 10 -2 10 3 0 5 12 15 28
22 22 11 24 14 9 17 -9 3 -15 9 -12 14 9 13 -8 10 -21 -4z"/>
<path d="M3483 8778 c-5 -7 -10 -24 -11 -37 -1 -26 8 -22 12 6 2 11 11 18 25
17 25 -1 28 11 5 20 -21 8 -20 8 -31 -6z"/>
<path d="M3536 8754 c-9 -23 -2 -28 13 -10 7 8 8 17 3 20 -6 3 -13 -1 -16 -10z"/>
<path d="M3451 8744 c0 -11 3 -14 6 -6 3 7 2 16 -1 19 -3 4 -6 -2 -5 -13z"/>
<path d="M3982 8740 c-7 -11 -8 -20 -3 -20 9 0 24 30 18 36 -1 2 -8 -6 -15
-16z"/>
<path d="M3431 8734 c0 -11 3 -14 6 -6 3 7 2 16 -1 19 -3 4 -6 -2 -5 -13z"/>
<path d="M3616 8741 c-4 -5 3 -7 14 -4 23 6 26 13 6 13 -8 0 -17 -4 -20 -9z"/>
<path d="M3570 8730 c13 -9 13 -11 0 -20 -8 -5 -10 -10 -4 -10 15 0 36 25 27
33 -3 4 -13 7 -22 7 -14 0 -14 -2 -1 -10z"/>
<path d="M3451 8712 c-1 -7 -5 -10 -11 -7 -6 3 -7 -1 -4 -10 4 -11 10 -13 16
-7 6 6 8 16 5 24 -4 10 -6 10 -6 0z"/>
<path d="M3530 8710 c-8 -5 -12 -12 -9 -15 4 -3 12 1 19 10 14 17 11 19 -10 5z"/>
<path d="M3990 8710 c-9 -6 -10 -10 -3 -10 6 0 15 5 18 10 8 12 4 12 -15 0z"/>
<path d="M3478 8703 c6 -2 9 -10 6 -15 -4 -7 -2 -8 5 -4 13 9 5 26 -12 25 -9
0 -8 -2 1 -6z"/>
<path d="M3775 8700 c-3 -5 -1 -10 4 -10 6 0 11 5 11 10 0 6 -2 10 -4 10 -3 0
-8 -4 -11 -10z"/>
<path d="M3565 8675 c-16 -14 -25 -25 -19 -25 6 0 21 11 34 25 30 32 24 31
-15 0z"/>
<path d="M3920 8675 c-17 -10 -20 -14 -9 -15 9 0 22 7 29 15 15 18 12 18 -20
0z"/>
<path d="M3888 8624 c-39 -21 -35 -28 5 -8 37 19 44 24 31 24 -5 -1 -21 -8
-36 -16z"/>
<path d="M3445 8620 c-3 -6 1 -7 9 -4 18 7 21 14 7 14 -6 0 -13 -4 -16 -10z"/>
<path d="M3486 8613 c-6 -14 -5 -15 5 -6 7 7 10 15 7 18 -3 3 -9 -2 -12 -12z"/>
<path d="M3595 8550 c-8 -13 5 -13 25 0 13 8 13 10 -2 10 -9 0 -20 -4 -23 -10z"/>
<path d="M4474 8958 l-19 -23 22 18 c12 11 27 16 34 11 8 -4 10 -3 5 4 -10 17
-21 15 -42 -10z"/>
<path d="M4403 8832 c-47 -48 -70 -79 -31 -43 23 21 41 30 50 26 7 -5 10 -5 6
0 -4 4 -3 16 3 26 14 27 4 24 -28 -9z"/>
<path d="M4480 8650 c0 -5 5 -10 10 -10 6 0 10 5 10 10 0 6 -4 10 -10 10 -5 0
-10 -4 -10 -10z"/>
<path d="M4610 8640 c-9 -6 -10 -10 -3 -10 6 0 15 5 18 10 8 12 4 12 -15 0z"/>
<path d="M3960 8100 c0 -13 18 -22 24 -11 3 5 -1 11 -9 15 -8 3 -15 1 -15 -4z"/>
<path d="M4163 8088 c1 -7 -3 -12 -9 -11 -7 1 -9 -8 -6 -25 l6 -27 7 25 c4 14
8 21 8 15 1 -5 5 -3 10 5 10 15 6 30 -10 30 -5 0 -8 -6 -6 -12z"/>
<path d="M3904 8058 l-19 -23 25 20 c14 11 27 21 29 22 2 2 0 3 -6 3 -5 0 -18
-10 -29 -22z"/>
<path d="M4140 8013 c0 -5 4 -15 10 -23 11 -18 25 -7 17 15 -6 15 -27 21 -27
8z"/>
<path d="M4016 7973 c-6 -14 -5 -15 5 -6 7 7 10 15 7 18 -3 3 -9 -2 -12 -12z"/>
<path d="M4349 7960 c-1 -8 -1 -21 0 -27 1 -8 -5 -10 -16 -7 -15 5 -16 4 -3
-5 23 -16 46 11 31 35 -8 15 -11 16 -12 4z"/>
<path d="M3831 7944 c0 -11 3 -14 6 -6 3 7 2 16 -1 19 -3 4 -6 -2 -5 -13z"/>
<path d="M4088 7893 c7 -3 16 -2 19 1 4 3 -2 6 -13 5 -11 0 -14 -3 -6 -6z"/>
<path d="M4284 7868 l-19 -23 23 19 c12 11 22 21 22 23 0 8 -8 2 -26 -19z"/>
<path d="M4110 7773 c-155 -78 -272 -121 -358 -130 -29 -3 -55 -10 -59 -16 -4
-7 9 -8 38 -3 24 4 55 9 69 11 50 5 136 34 193 63 33 17 66 28 75 25 13 -4 14
-3 4 5 -11 7 -7 11 15 17 15 5 31 8 36 7 4 -1 7 3 7 8 0 6 6 10 14 10 8 0 22
7 30 16 9 8 16 13 16 9 0 -3 6 -1 13 5 6 5 23 19 37 30 35 27 32 26 -130 -57z"/>
<path d="M3958 7783 c7 -3 16 -2 19 1 4 3 -2 6 -13 5 -11 0 -14 -3 -6 -6z"/>
<path d="M7248 8293 c7 -3 16 -2 19 1 4 3 -2 6 -13 5 -11 0 -14 -3 -6 -6z"/>
<path d="M3230 7979 c-45 -104 -50 -119 -45 -119 9 0 76 152 72 163 -2 6 -14
-14 -27 -44z"/>
<path d="M3060 7930 c0 -5 7 -7 15 -4 8 4 15 8 15 10 0 2 -7 4 -15 4 -8 0 -15
-4 -15 -10z"/>
<path d="M2960 7810 c0 -5 5 -10 10 -10 6 0 10 5 10 10 0 6 -4 10 -10 10 -5 0
-10 -4 -10 -10z"/>
<path d="M2992 7805 c4 -4 3 -14 -4 -22 -6 -7 -8 -16 -5 -19 3 -3 10 3 16 15
8 15 8 22 -1 27 -7 4 -10 4 -6 -1z"/>
<path d="M2942 7748 c6 -18 28 -21 28 -4 0 9 -7 16 -16 16 -9 0 -14 -5 -12
-12z"/>
<path d="M3125 7660 c3 -11 2 -20 -3 -20 -5 0 -14 -11 -20 -25 -8 -17 -8 -25
-1 -25 6 0 13 9 16 21 5 16 8 18 15 7 7 -10 8 -9 4 5 -4 12 0 17 14 17 25 0
25 9 3 26 -26 19 -35 17 -28 -6z"/>
<path d="M3015 7660 c3 -6 -4 -10 -16 -10 -25 0 -18 -12 9 -17 12 -1 18 5 19
17 1 11 -3 20 -8 20 -6 0 -7 -4 -4 -10z"/>
<path d="M2905 7640 c-3 -5 -1 -10 4 -10 6 0 11 5 11 10 0 6 -2 10 -4 10 -3 0
-8 -4 -11 -10z"/>
<path d="M3040 7630 c0 -5 5 -10 11 -10 5 0 7 5 4 10 -3 6 -8 10 -11 10 -2 0
-4 -4 -4 -10z"/>
<path d="M3080 7630 c-13 -8 -12 -10 3 -10 9 0 17 5 17 10 0 12 -1 12 -20 0z"/>
<path d="M3031 7594 c0 -11 3 -14 6 -6 3 7 2 16 -1 19 -3 4 -6 -2 -5 -13z"/>
<path d="M2970 7575 c0 -7 30 -13 34 -7 3 4 -4 9 -15 9 -10 1 -19 0 -19 -2z"/>
<path d="M2801 7543 c-18 -19 -9 -26 14 -9 10 7 14 15 9 18 -5 3 -15 -1 -23
-9z"/>
<path d="M2870 7531 c0 -6 4 -13 10 -16 6 -3 7 1 4 9 -7 18 -14 21 -14 7z"/>
<path d="M2790 7502 c0 -5 7 -9 15 -9 8 0 15 4 15 9 0 4 -7 8 -15 8 -8 0 -15
-4 -15 -8z"/>
<path d="M2843 7475 c0 -8 4 -15 9 -15 4 0 8 4 8 9 0 6 -4 12 -8 15 -5 3 -9
-1 -9 -9z"/>
<path d="M2980 7470 c-18 -13 -27 -15 -32 -7 -5 8 -8 6 -8 -6 0 -14 -5 -17
-22 -12 -16 4 -19 4 -9 -3 11 -8 10 -12 -5 -21 -11 -6 -15 -11 -9 -11 14 0
115 63 115 72 0 11 -1 10 -30 -12z"/>
<path d="M2736 7444 c-8 -20 -8 -24 2 -24 4 0 8 9 9 20 2 24 -3 26 -11 4z"/>
<path d="M4722 7990 c-7 -11 -8 -20 -3 -20 9 0 24 30 18 36 -1 2 -8 -6 -15
-16z"/>
<path d="M4686 7944 c-8 -21 -8 -24 5 -24 5 0 7 5 4 10 -3 6 -1 10 4 10 6 0
11 5 11 10 0 16 -17 12 -24 -6z"/>
<path d="M4955 7900 c-3 -5 -2 -10 4 -10 5 0 13 5 16 10 3 6 2 10 -4 10 -5 0
-13 -4 -16 -10z"/>
<path d="M4713 7873 c9 -2 23 -2 30 0 6 3 -1 5 -18 5 -16 0 -22 -2 -12 -5z"/>
<path d="M4860 7860 c-6 -11 -7 -20 -2 -20 6 0 12 9 15 20 3 11 3 20 1 20 -2
0 -8 -9 -14 -20z"/>
<path d="M5211 7683 c-1 -18 4 -33 9 -33 12 0 12 17 0 45 -7 17 -9 15 -9 -12z"/>
<path d="M5215 7630 c-3 -5 -3 -14 0 -20 8 -13 35 -13 35 0 0 5 -7 7 -15 4
-11 -5 -13 -2 -9 10 7 18 -1 22 -11 6z"/>
<path d="M4930 7576 c0 -2 7 -7 16 -10 8 -3 12 -2 9 4 -6 10 -25 14 -25 6z"/>
<path d="M5214 7568 c-4 -7 -3 -8 5 -4 6 4 19 2 27 -5 12 -10 13 -9 8 5 -7 19
-30 21 -40 4z"/>
<path d="M5076 7483 c-6 -14 -5 -15 5 -6 7 7 10 15 7 18 -3 3 -9 -2 -12 -12z"/>
<path d="M5140 7491 c0 -5 5 -13 10 -16 6 -3 10 -2 10 4 0 5 -4 13 -10 16 -5
3 -10 2 -10 -4z"/>
<path d="M4850 7477 c0 -2 14 -16 32 -33 l32 -29 -25 32 c-20 27 -39 41 -39
30z"/>
<path d="M5099 7463 c-13 -16 -12 -17 4 -4 16 13 21 21 13 21 -2 0 -10 -8 -17
-17z"/>
<path d="M5141 7444 c0 -11 3 -14 6 -6 3 7 2 16 -1 19 -3 4 -6 -2 -5 -13z"/>
<path d="M5135 7330 c-3 -5 -1 -10 4 -10 6 0 11 5 11 10 0 6 -2 10 -4 10 -3 0
-8 -4 -11 -10z"/>
<path d="M5268 7273 c7 -3 16 -2 19 1 4 3 -2 6 -13 5 -11 0 -14 -3 -6 -6z"/>
<path d="M3500 7004 c0 -8 5 -12 10 -9 6 4 8 11 5 16 -9 14 -15 11 -15 -7z"/>
<path d="M3505 6970 c-4 -6 3 -10 14 -10 25 0 27 6 6 13 -8 4 -17 2 -20 -3z"/>
<path d="M3956 6963 c-6 -14 -5 -15 5 -6 7 7 10 15 7 18 -3 3 -9 -2 -12 -12z"/>
<path d="M3914 6877 l-29 -32 30 25 c17 14 32 26 34 28 2 1 2 4 -1 7 -2 3 -18
-10 -34 -28z"/>
<path d="M3491 6884 c0 -11 3 -14 6 -6 3 7 2 16 -1 19 -3 4 -6 -2 -5 -13z"/>
<path d="M3515 6870 c-3 -5 -1 -10 4 -10 6 0 11 5 11 10 0 6 -2 10 -4 10 -3 0
-8 -4 -11 -10z"/>
<path d="M3829 6843 c-13 -16 -12 -17 4 -4 9 7 17 15 17 17 0 8 -8 3 -21 -13z"/>
<path d="M3490 6794 c0 -19 4 -33 8 -30 8 5 4 66 -4 66 -2 0 -4 -16 -4 -36z"/>
<path d="M3790 6820 c0 -5 5 -10 11 -10 5 0 7 5 4 10 -3 6 -8 10 -11 10 -2 0
-4 -4 -4 -10z"/>
<path d="M3826 6805 c-11 -8 -17 -17 -14 -20 2 -3 13 4 23 15 21 23 18 25 -9
5z"/>
<path d="M3780 6770 c-9 -6 -10 -10 -3 -10 6 0 15 5 18 10 8 12 4 12 -15 0z"/>
<path d="M3639 6765 c0 0 -2 -8 -4 -17 -4 -23 8 -23 30 1 16 19 16 20 -4 18
-12 -1 -21 -1 -22 -2z"/>
<path d="M3555 6690 c-3 -5 -2 -10 4 -10 5 0 13 5 16 10 3 6 2 10 -4 10 -5 0
-13 -4 -16 -10z"/>
<path d="M3502 6640 c0 -14 2 -19 5 -12 2 6 2 18 0 25 -3 6 -5 1 -5 -13z"/>
<path d="M3606 6647 c3 -10 9 -15 12 -12 3 3 0 11 -7 18 -10 9 -11 8 -5 -6z"/>
<path d="M3512 6590 c0 -14 2 -19 5 -12 2 6 2 18 0 25 -3 6 -5 1 -5 -13z"/>
<path d="M4727 7065 c3 -8 9 -12 14 -9 12 7 11 11 -5 17 -10 4 -13 1 -9 -8z"/>
<path d="M4690 7051 c0 -5 7 -12 15 -15 12 -4 14 -10 5 -25 -5 -11 -10 -26
-10 -33 1 -7 7 1 14 17 9 22 10 35 2 48 -12 18 -26 23 -26 8z"/>
<path d="M4656 7034 c-8 -22 -1 -28 19 -17 14 8 14 11 2 22 -12 9 -16 8 -21
-5z"/>
<path d="M5504 7061 c4 -5 14 -7 23 -4 11 5 14 3 8 -6 -4 -7 -18 -11 -30 -9
-16 3 -22 1 -18 -8 3 -9 12 -10 34 -2 34 12 34 31 0 36 -14 2 -21 0 -17 -7z"/>
<path d="M5627 7039 c7 -7 15 -10 18 -7 3 3 -2 9 -12 12 -14 6 -15 5 -6 -5z"/>
<path d="M5375 7000 c-3 -5 -1 -10 4 -10 6 0 11 5 11 10 0 6 -2 10 -4 10 -3 0
-8 -4 -11 -10z"/>
<path d="M5541 6994 c0 -11 3 -14 6 -6 3 7 2 16 -1 19 -3 4 -6 -2 -5 -13z"/>
<path d="M5408 6953 c7 -3 16 -2 19 1 4 3 -2 6 -13 5 -11 0 -14 -3 -6 -6z"/>
<path d="M5450 6940 c0 -5 5 -10 11 -10 5 0 7 5 4 10 -3 6 -8 10 -11 10 -2 0
-4 -4 -4 -10z"/>
<path d="M5480 6942 c0 -12 19 -26 26 -19 2 2 -2 10 -11 17 -9 8 -15 8 -15 2z"/>
<path d="M5608 6913 c6 -2 18 -2 25 0 6 3 1 5 -13 5 -14 0 -19 -2 -12 -5z"/>
<path d="M6070 6786 c0 -2 8 -10 18 -17 15 -13 16 -12 3 4 -13 16 -21 21 -21
13z"/>
<path d="M6170 6676 c0 -2 8 -10 18 -17 15 -13 16 -12 3 4 -13 16 -21 21 -21
13z"/>
<path d="M5985 6630 c-3 -6 1 -7 9 -4 18 7 21 14 7 14 -6 0 -13 -4 -16 -10z"/>
<path d="M5829 6583 c-13 -16 -12 -17 4 -4 9 7 17 15 17 17 0 8 -8 3 -21 -13z"/>
<path d="M5862 6585 c-11 -12 -10 -15 3 -15 8 0 15 7 15 15 0 18 -2 18 -18 0z"/>
<path d="M6635 6519 c-4 -6 -5 -12 -2 -15 2 -3 7 2 10 11 7 17 1 20 -8 4z"/>
<path d="M6722 6505 c15 -16 20 -17 30 -6 11 11 10 13 0 7 -7 -4 -21 -2 -30 5
-15 12 -15 11 0 -6z"/>
<path d="M6724 6476 c11 -9 24 -16 30 -16 12 0 7 5 -24 19 -24 11 -24 11 -6
-3z"/>
<path d="M6780 6471 c0 -8 42 -44 100 -85 8 -6 -9 13 -37 42 -52 52 -63 60
-63 43z"/>
<path d="M6620 6379 c0 -5 5 -7 10 -4 6 3 10 8 10 11 0 2 -4 4 -10 4 -5 0 -10
-5 -10 -11z"/>
<path d="M6591 6363 c6 -7 15 -13 20 -13 5 0 6 6 3 13 -3 8 -11 14 -19 14 -11
0 -12 -4 -4 -14z"/>
<path d="M6490 6260 c0 -5 5 -10 11 -10 5 0 7 5 4 10 -3 6 -8 10 -11 10 -2 0
-4 -4 -4 -10z"/>
<path d="M6535 6230 c3 -5 8 -10 11 -10 2 0 4 5 4 10 0 6 -5 10 -11 10 -5 0
-7 -4 -4 -10z"/>
<path d="M6496 6221 c-3 -5 1 -11 9 -15 8 -3 15 -1 15 4 0 13 -18 22 -24 11z"/>
<path d="M6559 6189 c-11 -7 -9 -9 9 -9 12 0 22 -5 22 -11 0 -5 -5 -7 -12 -3
-7 4 -8 3 -4 -4 4 -6 13 -9 21 -5 10 3 14 0 12 -8 -2 -8 -2 -10 1 -6 2 4 11 2
20 -5 11 -9 10 -4 -3 14 -27 36 -49 48 -66 37z"/>
<path d="M3775 3851 c3 -6 14 -9 25 -8 23 2 17 10 -11 14 -11 2 -18 -1 -14 -6z"/>
<path d="M4490 3755 c14 -17 85 -18 113 -1 13 8 20 8 26 -2 6 -9 14 -10 34 -3
16 6 29 7 32 1 7 -11 85 -9 85 3 0 4 5 5 10 2 6 -3 10 -1 10 6 0 11 -27 9 -64
-6 -14 -6 -17 -5 -12 3 5 8 -13 11 -64 10 -41 0 -70 -5 -70 -12 0 -6 -5 -5
-12 2 -7 7 -22 12 -35 12 -13 0 -23 -5 -23 -12 0 -9 -3 -9 -12 0 -17 17 -33
15 -18 -3z"/>
</g>
</svg>
